{
.appVersion = "939";
DisplayStrings = (
h,
x
);
copyright = "Copyright © 2018 by Noponies. All rights reserved.";
date = "2018-02-27 23:29:27 +0000";
designer = Noponies;
designerURL = "http://noponies.com";
familyName = "Four by Four";
fontMaster = (
{
alignmentZones = (
"{840, 16}",
"{700, 16}",
"{500, 15}",
"{0, -16}",
"{-200, -16}"
);
ascender = 840;
capHeight = 700;
descender = -140;
guideLines = (
{
position = "{461, 360}";
},
{
angle = 180;
position = "{120, 220}";
}
);
id = "B5009CFD-227C-4A9D-A9B5-DAE3AEABB0A3";
userData = {
GSCornerRadius = 30;
};
weight = Bold;
xHeight = 700;
}
);
glyphs = (
{
glyphname = A;
lastChange = "2018-03-15 02:15:30 +0000";
layers = (
{
guideLines = (
{
position = "{400, 700}";
}
);
layerId = "B5009CFD-227C-4A9D-A9B5-DAE3AEABB0A3";
paths = (
{
closed = 1;
nodes = (
"300 0 LINE SMOOTH",
"319 0 OFFCURVE",
"330 11 OFFCURVE",
"330 30 CURVE SMOOTH",
"330 109 LINE SMOOTH",
"330 126 OFFCURVE",
"344 140 OFFCURVE",
"361 140 CURVE SMOOTH",
"439 140 LINE SMOOTH",
"456 140 OFFCURVE",
"470 126 OFFCURVE",
"470 109 CURVE SMOOTH",
"470 30 LINE SMOOTH",
"470 11 OFFCURVE",
"481 0 OFFCURVE",
"500 0 CURVE SMOOTH",
"720 0 LINE SMOOTH",
"739 0 OFFCURVE",
"750 11 OFFCURVE",
"750 30 CURVE SMOOTH",
"750 670 LINE SMOOTH",
"750 689 OFFCURVE",
"739 700 OFFCURVE",
"720 700 CURVE SMOOTH",
"80 700 LINE SMOOTH",
"61 700 OFFCURVE",
"50 689 OFFCURVE",
"50 670 CURVE SMOOTH",
"50 30 LINE SMOOTH",
"50 11 OFFCURVE",
"61 0 OFFCURVE",
"80 0 CURVE SMOOTH"
);
},
{
closed = 1;
nodes = (
"330 460 LINE SMOOTH",
"330 477 OFFCURVE",
"344 491 OFFCURVE",
"361 491 CURVE SMOOTH",
"439 491 LINE SMOOTH",
"456 491 OFFCURVE",
"470 477 OFFCURVE",
"470 460 CURVE SMOOTH",
"470 382 LINE SMOOTH",
"470 365 OFFCURVE",
"456 351 OFFCURVE",
"439 351 CURVE SMOOTH",
"361 351 LINE SMOOTH",
"344 351 OFFCURVE",
"330 365 OFFCURVE",
"330 382 CURVE SMOOTH"
);
}
);
width = 800;
}
);
unicode = 0041;
},
{
glyphname = B;
lastChange = "2018-03-15 02:26:47 +0000";
layers = (
{
layerId = "B5009CFD-227C-4A9D-A9B5-DAE3AEABB0A3";
paths = (
{
closed = 1;
nodes = (
"80 700 LINE SMOOTH",
"61 700 OFFCURVE",
"50 689 OFFCURVE",
"50 670 CURVE SMOOTH",
"50 30 LINE SMOOTH",
"50 11 OFFCURVE",
"61 0 OFFCURVE",
"80 0 CURVE SMOOTH",
"720 0 LINE SMOOTH",
"739 0 OFFCURVE",
"750 11 OFFCURVE",
"750 30 CURVE SMOOTH",
"750 246 LINE SMOOTH",
"750 261 OFFCURVE",
"746 272 OFFCURVE",
"735 283 CURVE SMOOTH",
"666 352 LINE",
"735 421 LINE SMOOTH",
"746 432 OFFCURVE",
"750 443 OFFCURVE",
"750 458 CURVE SMOOTH",
"750 670 LINE SMOOTH",
"750 689 OFFCURVE",
"739 700 OFFCURVE",
"720 700 CURVE SMOOTH"
);
},
{
closed = 1;
nodes = (
"361 140 LINE SMOOTH",
"344 140 OFFCURVE",
"330 154 OFFCURVE",
"330 171 CURVE SMOOTH",
"330 249 LINE SMOOTH",
"330 266 OFFCURVE",
"344 280 OFFCURVE",
"361 280 CURVE SMOOTH",
"439 280 LINE SMOOTH",
"456 280 OFFCURVE",
"470 266 OFFCURVE",
"470 249 CURVE SMOOTH",
"470 171 LINE SMOOTH",
"470 154 OFFCURVE",
"456 140 OFFCURVE",
"439 140 CURVE SMOOTH"
);
},
{
closed = 1;
nodes = (
"361 420 LINE SMOOTH",
"344 420 OFFCURVE",
"330 434 OFFCURVE",
"330 451 CURVE SMOOTH",
"330 529 LINE SMOOTH",
"330 546 OFFCURVE",
"344 560 OFFCURVE",
"361 560 CURVE SMOOTH",
"439 560 LINE SMOOTH",
"456 560 OFFCURVE",
"470 546 OFFCURVE",
"470 529 CURVE SMOOTH",
"470 451 LINE SMOOTH",
"470 434 OFFCURVE",
"456 420 OFFCURVE",
"439 420 CURVE SMOOTH"
);
}
);
width = 800;
}
);
unicode = 0042;
},
{
glyphname = C;
lastChange = "2018-03-15 02:26:47 +0000";
layers = (
{
layerId = "B5009CFD-227C-4A9D-A9B5-DAE3AEABB0A3";
paths = (
{
closed = 1;
nodes = (
"720 0 LINE SMOOTH",
"739 0 OFFCURVE",
"750 11 OFFCURVE",
"750 30 CURVE SMOOTH",
"750 249 LINE SMOOTH",
"750 268 OFFCURVE",
"739 279 OFFCURVE",
"720 279 CURVE SMOOTH",
"641 279 LINE SMOOTH",
"624 279 OFFCURVE",
"610 293 OFFCURVE",
"610 310 CURVE SMOOTH",
"610 388 LINE SMOOTH",
"610 405 OFFCURVE",
"624 419 OFFCURVE",
"641 419 CURVE SMOOTH",
"720 419 LINE SMOOTH",
"739 419 OFFCURVE",
"750 430 OFFCURVE",
"750 449 CURVE SMOOTH",
"750 670 LINE SMOOTH",
"750 689 OFFCURVE",
"739 700 OFFCURVE",
"720 700 CURVE SMOOTH",
"80 700 LINE SMOOTH",
"61 700 OFFCURVE",
"50 689 OFFCURVE",
"50 670 CURVE SMOOTH",
"50 30 LINE SMOOTH",
"50 11 OFFCURVE",
"61 0 OFFCURVE",
"80 0 CURVE SMOOTH"
);
}
);
width = 800;
}
);
unicode = 0043;
},
{
glyphname = D;
lastChange = "2018-03-15 02:26:47 +0000";
layers = (
{
layerId = "B5009CFD-227C-4A9D-A9B5-DAE3AEABB0A3";
paths = (
{
closed = 1;
nodes = (
"50 30 LINE SMOOTH",
"50 11 OFFCURVE",
"61 0 OFFCURVE",
"80 0 CURVE SMOOTH",
"720 0 LINE SMOOTH",
"739 0 OFFCURVE",
"750 11 OFFCURVE",
"750 30 CURVE SMOOTH",
"750 559 LINE SMOOTH",
"750 574 OFFCURVE",
"746 585 OFFCURVE",
"735 596 CURVE SMOOTH",
"646 685 LINE SMOOTH",
"635 696 OFFCURVE",
"624 700 OFFCURVE",
"609 700 CURVE SMOOTH",
"80 700 LINE SMOOTH",
"61 700 OFFCURVE",
"50 689 OFFCURVE",
"50 670 CURVE SMOOTH"
);
},
{
closed = 1;
nodes = (
"470 311 LINE SMOOTH",
"470 294 OFFCURVE",
"456 280 OFFCURVE",
"439 280 CURVE SMOOTH",
"361 280 LINE SMOOTH",
"344 280 OFFCURVE",
"330 294 OFFCURVE",
"330 311 CURVE SMOOTH",
"330 389 LINE SMOOTH",
"330 406 OFFCURVE",
"344 420 OFFCURVE",
"361 420 CURVE SMOOTH",
"439 420 LINE SMOOTH",
"456 420 OFFCURVE",
"470 406 OFFCURVE",
"470 389 CURVE SMOOTH"
);
}
);
width = 800;
}
);
unicode = 0044;
},
{
glyphname = E;
lastChange = "2018-03-15 02:26:47 +0000";
layers = (
{
layerId = "B5009CFD-227C-4A9D-A9B5-DAE3AEABB0A3";
paths = (
{
closed = 1;
nodes = (
"720 0 LINE SMOOTH",
"739 0 OFFCURVE",
"750 11 OFFCURVE",
"750 30 CURVE SMOOTH",
"750 110 LINE SMOOTH",
"750 129 OFFCURVE",
"739 140 OFFCURVE",
"720 140 CURVE SMOOTH",
"641 140 LINE SMOOTH",
"624 140 OFFCURVE",
"610 154 OFFCURVE",
"610 171 CURVE SMOOTH",
"610 249 LINE SMOOTH",
"610 266 OFFCURVE",
"624 280 OFFCURVE",
"641 280 CURVE SMOOTH",
"720 280 LINE SMOOTH",
"739 280 OFFCURVE",
"750 291 OFFCURVE",
"750 310 CURVE SMOOTH",
"750 390 LINE SMOOTH",
"750 409 OFFCURVE",
"739 420 OFFCURVE",
"720 420 CURVE SMOOTH",
"641 420 LINE SMOOTH",
"624 420 OFFCURVE",
"610 434 OFFCURVE",
"610 451 CURVE SMOOTH",
"610 529 LINE SMOOTH",
"610 546 OFFCURVE",
"624 560 OFFCURVE",
"641 560 CURVE SMOOTH",
"720 560 LINE SMOOTH",
"739 560 OFFCURVE",
"750 571 OFFCURVE",
"750 590 CURVE SMOOTH",
"750 670 LINE SMOOTH",
"750 689 OFFCURVE",
"739 700 OFFCURVE",
"720 700 CURVE SMOOTH",
"80 700 LINE SMOOTH",
"61 700 OFFCURVE",
"50 689 OFFCURVE",
"50 670 CURVE SMOOTH",
"50 30 LINE SMOOTH",
"50 11 OFFCURVE",
"61 0 OFFCURVE",
"80 0 CURVE SMOOTH"
);
}
);
width = 800;
}
);
unicode = 0045;
},
{
glyphname = F;
lastChange = "2018-03-15 02:26:47 +0000";
layers = (
{
layerId = "B5009CFD-227C-4A9D-A9B5-DAE3AEABB0A3";
paths = (
{
closed = 1;
nodes = (
"580 0 LINE SMOOTH",
"599 0 OFFCURVE",
"610 11 OFFCURVE",
"610 30 CURVE SMOOTH",
"610 109 LINE SMOOTH",
"610 126 OFFCURVE",
"624 140 OFFCURVE",
"641 140 CURVE SMOOTH",
"720 140 LINE SMOOTH",
"739 140 OFFCURVE",
"750 151 OFFCURVE",
"750 170 CURVE SMOOTH",
"750 250 LINE SMOOTH",
"750 269 OFFCURVE",
"739 280 OFFCURVE",
"720 280 CURVE SMOOTH",
"641 280 LINE SMOOTH",
"624 280 OFFCURVE",
"610 294 OFFCURVE",
"610 311 CURVE SMOOTH",
"610 389 LINE SMOOTH",
"610 406 OFFCURVE",
"624 420 OFFCURVE",
"641 420 CURVE SMOOTH",
"720 420 LINE SMOOTH",
"739 420 OFFCURVE",
"750 431 OFFCURVE",
"750 450 CURVE SMOOTH",
"750 670 LINE SMOOTH",
"750 689 OFFCURVE",
"739 700 OFFCURVE",
"720 700 CURVE SMOOTH",
"80 700 LINE SMOOTH",
"61 700 OFFCURVE",
"50 689 OFFCURVE",
"50 670 CURVE SMOOTH",
"50 30 LINE SMOOTH",
"50 11 OFFCURVE",
"61 0 OFFCURVE",
"80 0 CURVE SMOOTH"
);
}
);
width = 800;
}
);
unicode = 0046;
},
{
glyphname = G;
lastChange = "2018-03-15 02:26:47 +0000";
layers = (
{
layerId = "B5009CFD-227C-4A9D-A9B5-DAE3AEABB0A3";
paths = (
{
closed = 1;
nodes = (
"720 0 LINE SMOOTH",
"739 0 OFFCURVE",
"750 11 OFFCURVE",
"750 30 CURVE SMOOTH",
"750 249 LINE SMOOTH",
"750 266 OFFCURVE",
"736 280 OFFCURVE",
"719 280 CURVE SMOOTH",
"641 280 LINE SMOOTH",
"624 280 OFFCURVE",
"610 266 OFFCURVE",
"610 249 CURVE SMOOTH",
"610 171 LINE SMOOTH",
"610 154 OFFCURVE",
"596 140 OFFCURVE",
"579 140 CURVE SMOOTH",
"501 140 LINE SMOOTH",
"484 140 OFFCURVE",
"470 154 OFFCURVE",
"470 171 CURVE SMOOTH",
"470 389 LINE SMOOTH",
"470 406 OFFCURVE",
"484 420 OFFCURVE",
"501 420 CURVE SMOOTH",
"719 420 LINE SMOOTH",
"736 420 OFFCURVE",
"750 434 OFFCURVE",
"750 451 CURVE SMOOTH",
"750 670 LINE SMOOTH",
"750 689 OFFCURVE",
"739 700 OFFCURVE",
"720 700 CURVE SMOOTH",
"80 700 LINE SMOOTH",
"61 700 OFFCURVE",
"50 689 OFFCURVE",
"50 670 CURVE SMOOTH",
"50 30 LINE SMOOTH",
"50 11 OFFCURVE",
"61 0 OFFCURVE",
"80 0 CURVE SMOOTH"
);
}
);
width = 800;
}
);
unicode = 0047;
},
{
glyphname = H;
lastChange = "2018-03-15 02:14:36 +0000";
layers = (
{
layerId = "B5009CFD-227C-4A9D-A9B5-DAE3AEABB0A3";
paths = (
{
closed = 1;
nodes = (
"300 0 LINE SMOOTH",
"319 0 OFFCURVE",
"330 11 OFFCURVE",
"330 30 CURVE SMOOTH",
"330 109 LINE SMOOTH",
"330 126 OFFCURVE",
"344 140 OFFCURVE",
"361 140 CURVE SMOOTH",
"439 140 LINE SMOOTH",
"456 140 OFFCURVE",
"470 126 OFFCURVE",
"470 109 CURVE SMOOTH",
"470 30 LINE SMOOTH",
"470 11 OFFCURVE",
"481 0 OFFCURVE",
"500 0 CURVE SMOOTH",
"720 0 LINE SMOOTH",
"739 0 OFFCURVE",
"750 11 OFFCURVE",
"750 30 CURVE SMOOTH",
"750 670 LINE SMOOTH",
"750 689 OFFCURVE",
"739 700 OFFCURVE",
"720 700 CURVE SMOOTH",
"500 700 LINE SMOOTH",
"481 700 OFFCURVE",
"470 689 OFFCURVE",
"470 670 CURVE SMOOTH",
"470 591 LINE SMOOTH",
"470 574 OFFCURVE",
"456 560 OFFCURVE",
"439 560 CURVE SMOOTH",
"361 560 LINE SMOOTH",
"344 560 OFFCURVE",
"330 574 OFFCURVE",
"330 591 CURVE SMOOTH",
"330 670 LINE SMOOTH",
"330 689 OFFCURVE",
"319 700 OFFCURVE",
"300 700 CURVE SMOOTH",
"80 700 LINE SMOOTH",
"61 700 OFFCURVE",
"50 689 OFFCURVE",
"50 670 CURVE SMOOTH",
"50 30 LINE SMOOTH",
"50 11 OFFCURVE",
"61 0 OFFCURVE",
"80 0 CURVE SMOOTH"
);
}
);
width = 800;
}
);
unicode = 0048;
},
{
glyphname = I;
lastChange = "2018-03-14 07:16:20 +0000";
layers = (
{
layerId = "B5009CFD-227C-4A9D-A9B5-DAE3AEABB0A3";
paths = (
{
closed = 1;
nodes = (
"750 670 LINE SMOOTH",
"750 689 OFFCURVE",
"739 700 OFFCURVE",
"720 700 CURVE SMOOTH",
"80 700 LINE SMOOTH",
"61 700 OFFCURVE",
"50 689 OFFCURVE",
"50 670 CURVE SMOOTH",
"50 30 LINE SMOOTH",
"50 11 OFFCURVE",
"61 0 OFFCURVE",
"80 0 CURVE SMOOTH",
"720 0 LINE SMOOTH",
"739 0 OFFCURVE",
"750 11 OFFCURVE",
"750 30 CURVE SMOOTH"
);
}
);
width = 800;
}
);
unicode = 0049;
},
{
glyphname = J;
lastChange = "2018-03-15 02:14:25 +0000";
layers = (
{
layerId = "B5009CFD-227C-4A9D-A9B5-DAE3AEABB0A3";
paths = (
{
closed = 1;
nodes = (
"720 1 LINE SMOOTH",
"739 1 OFFCURVE",
"750 12 OFFCURVE",
"750 31 CURVE SMOOTH",
"750 670 LINE SMOOTH",
"750 689 OFFCURVE",
"739 700 OFFCURVE",
"720 700 CURVE SMOOTH",
"220 700 LINE SMOOTH",
"201 700 OFFCURVE",
"190 689 OFFCURVE",
"190 670 CURVE SMOOTH",
"190 591 LINE SMOOTH",
"190 574 OFFCURVE",
"176 560 OFFCURVE",
"159 560 CURVE SMOOTH",
"80 560 LINE SMOOTH",
"61 560 OFFCURVE",
"50 549 OFFCURVE",
"50 530 CURVE SMOOTH",
"50 31 LINE SMOOTH",
"50 12 OFFCURVE",
"61 1 OFFCURVE",
"80 1 CURVE SMOOTH"
);
}
);
width = 800;
}
);
unicode = 004A;
},
{
glyphname = K;
lastChange = "2018-03-15 02:26:47 +0000";
layers = (
{
layerId = "B5009CFD-227C-4A9D-A9B5-DAE3AEABB0A3";
paths = (
{
closed = 1;
nodes = (
"464 700 LINE SMOOTH",
"449 700 OFFCURVE",
"438 696 OFFCURVE",
"427 685 CURVE SMOOTH",
"395 652 LINE SMOOTH",
"376 632 OFFCURVE",
"358 641 OFFCURVE",
"358 668 CURVE SMOOTH",
"358 670 LINE SMOOTH",
"358 689 OFFCURVE",
"347 700 OFFCURVE",
"328 700 CURVE SMOOTH",
"80 700 LINE SMOOTH",
"61 700 OFFCURVE",
"50 689 OFFCURVE",
"50 670 CURVE SMOOTH",
"50 30 LINE SMOOTH",
"50 11 OFFCURVE",
"61 0 OFFCURVE",
"80 0 CURVE SMOOTH",
"328 0 LINE SMOOTH",
"347 0 OFFCURVE",
"358 11 OFFCURVE",
"358 30 CURVE SMOOTH",
"358 33 LINE SMOOTH",
"358 60 OFFCURVE",
"376 67 OFFCURVE",
"395 48 CURVE SMOOTH",
"428 15 LINE SMOOTH",
"439 4 OFFCURVE",
"450 0 OFFCURVE",
"465 0 CURVE SMOOTH",
"720 0 LINE SMOOTH",
"739 0 OFFCURVE",
"750 11 OFFCURVE",
"750 30 CURVE SMOOTH",
"750 244 LINE SMOOTH",
"750 259 OFFCURVE",
"746 270 OFFCURVE",
"735 281 CURVE SMOOTH",
"686 329 LINE SMOOTH",
"672 342 OFFCURVE",
"673 358 OFFCURVE",
"687 371 CURVE",
"735 419 LINE SMOOTH",
"746 430 OFFCURVE",
"750 441 OFFCURVE",
"750 456 CURVE SMOOTH",
"750 670 LINE SMOOTH",
"750 689 OFFCURVE",
"739 700 OFFCURVE",
"720 700 CURVE SMOOTH"
);
}
);
width = 800;
}
);
unicode = 004B;
},
{
glyphname = L;
lastChange = "2018-03-15 02:26:47 +0000";
layers = (
{
layerId = "B5009CFD-227C-4A9D-A9B5-DAE3AEABB0A3";
paths = (
{
closed = 1;
nodes = (
"719 0 LINE SMOOTH",
"738 0 OFFCURVE",
"749 11 OFFCURVE",
"749 30 CURVE SMOOTH",
"749 529 LINE SMOOTH",
"749 548 OFFCURVE",
"738 559 OFFCURVE",
"719 559 CURVE SMOOTH",
"639 559 LINE SMOOTH",
"620 559 OFFCURVE",
"609 570 OFFCURVE",
"609 589 CURVE SMOOTH",
"609 669 LINE SMOOTH",
"609 688 OFFCURVE",
"598 699 OFFCURVE",
"579 699 CURVE SMOOTH",
"80 699 LINE SMOOTH",
"61 699 OFFCURVE",
"50 688 OFFCURVE",
"50 669 CURVE SMOOTH",
"50 30 LINE SMOOTH",
"50 11 OFFCURVE",
"61 0 OFFCURVE",
"80 0 CURVE SMOOTH"
);
}
);
width = 799;
}
);
unicode = 004C;
},
{
glyphname = M;
lastChange = "2018-03-14 07:19:06 +0000";
layers = (
{
layerId = "B5009CFD-227C-4A9D-A9B5-DAE3AEABB0A3";
paths = (
{
closed = 1;
nodes = (
"421 637 LINE SMOOTH",
"408 624 OFFCURVE",
"393 624 OFFCURVE",
"379 637 CURVE SMOOTH",
"330 685 LINE SMOOTH",
"319 696 OFFCURVE",
"308 700 OFFCURVE",
"293 700 CURVE SMOOTH",
"80 700 LINE SMOOTH",
"61 700 OFFCURVE",
"50 689 OFFCURVE",
"50 670 CURVE SMOOTH",
"50 30 LINE SMOOTH",
"50 11 OFFCURVE",
"61 0 OFFCURVE",
"80 0 CURVE SMOOTH",
"209 0 LINE SMOOTH",
"224 0 OFFCURVE",
"235 4 OFFCURVE",
"246 15 CURVE SMOOTH",
"315 84 LINE",
"378 21 LINE SMOOTH",
"391 8 OFFCURVE",
"406 8 OFFCURVE",
"420 21 CURVE SMOOTH",
"484 84 LINE",
"553 15 LINE SMOOTH",
"564 4 OFFCURVE",
"575 0 OFFCURVE",
"590 0 CURVE SMOOTH",
"720 0 LINE SMOOTH",
"739 0 OFFCURVE",
"750 11 OFFCURVE",
"750 30 CURVE SMOOTH",
"750 670 LINE SMOOTH",
"750 689 OFFCURVE",
"739 700 OFFCURVE",
"720 700 CURVE SMOOTH",
"506 700 LINE SMOOTH",
"491 700 OFFCURVE",
"480 696 OFFCURVE",
"469 685 CURVE SMOOTH"
);
}
);
width = 800;
}
);
unicode = 004D;
},
{
glyphname = N;
lastChange = "2018-03-14 07:20:46 +0000";
layers = (
{
layerId = "B5009CFD-227C-4A9D-A9B5-DAE3AEABB0A3";
paths = (
{
closed = 1;
nodes = (
"367 652 LINE SMOOTH",
"348 633 OFFCURVE",
"330 640 OFFCURVE",
"330 667 CURVE SMOOTH",
"330 670 LINE SMOOTH",
"330 689 OFFCURVE",
"319 700 OFFCURVE",
"300 700 CURVE SMOOTH",
"80 700 LINE SMOOTH",
"61 700 OFFCURVE",
"50 689 OFFCURVE",
"50 670 CURVE SMOOTH",
"50 30 LINE SMOOTH",
"50 11 OFFCURVE",
"61 0 OFFCURVE",
"80 0 CURVE SMOOTH",
"386 0 LINE",
"386 1 LINE",
"385 2 OFFCURVE",
"389 5 OFFCURVE",
"400 16 CURVE SMOOTH",
"433 49 LINE SMOOTH",
"452 68 OFFCURVE",
"470 59 OFFCURVE",
"470 33 CURVE SMOOTH",
"470 30 LINE SMOOTH",
"470 11 OFFCURVE",
"481 0 OFFCURVE",
"500 0 CURVE SMOOTH",
"720 0 LINE SMOOTH",
"739 0 OFFCURVE",
"750 11 OFFCURVE",
"750 30 CURVE SMOOTH",
"750 670 LINE SMOOTH",
"750 689 OFFCURVE",
"739 700 OFFCURVE",
"720 700 CURVE SMOOTH",
"436 700 LINE SMOOTH",
"421 700 OFFCURVE",
"410 695 OFFCURVE",
"399 684 CURVE SMOOTH"
);
}
);
width = 800;
}
);
unicode = 004E;
},
{
glyphname = O;
lastChange = "2018-03-15 02:15:40 +0000";
layers = (
{
layerId = "B5009CFD-227C-4A9D-A9B5-DAE3AEABB0A3";
paths = (
{
closed = 1;
nodes = (
"750 669 LINE SMOOTH",
"750 686 OFFCURVE",
"736 700 OFFCURVE",
"719 700 CURVE SMOOTH",
"81 700 LINE SMOOTH",
"64 700 OFFCURVE",
"50 686 OFFCURVE",
"50 669 CURVE SMOOTH",
"50 31 LINE SMOOTH",
"50 14 OFFCURVE",
"64 0 OFFCURVE",
"81 0 CURVE SMOOTH",
"719 0 LINE SMOOTH",
"736 0 OFFCURVE",
"750 14 OFFCURVE",
"750 31 CURVE SMOOTH"
);
},
{
closed = 1;
nodes = (
"361 280 LINE SMOOTH",
"344 280 OFFCURVE",
"330 294 OFFCURVE",
"330 311 CURVE SMOOTH",
"330 389 LINE SMOOTH",
"330 406 OFFCURVE",
"344 420 OFFCURVE",
"361 420 CURVE SMOOTH",
"439 420 LINE SMOOTH",
"456 420 OFFCURVE",
"470 406 OFFCURVE",
"470 389 CURVE SMOOTH",
"470 311 LINE SMOOTH",
"470 294 OFFCURVE",
"456 280 OFFCURVE",
"439 280 CURVE SMOOTH"
);
}
);
width = 800;
}
);
unicode = 004F;
},
{
glyphname = P;
lastChange = "2018-03-15 02:15:48 +0000";
layers = (
{
layerId = "B5009CFD-227C-4A9D-A9B5-DAE3AEABB0A3";
paths = (
{
closed = 1;
nodes = (
"50 31 LINE SMOOTH",
"50 14 OFFCURVE",
"64 0 OFFCURVE",
"81 0 CURVE SMOOTH",
"579 0 LINE SMOOTH",
"596 0 OFFCURVE",
"610 14 OFFCURVE",
"610 31 CURVE SMOOTH",
"610 109 LINE SMOOTH",
"610 126 OFFCURVE",
"624 140 OFFCURVE",
"641 140 CURVE SMOOTH",
"719 140 LINE SMOOTH",
"736 140 OFFCURVE",
"750 154 OFFCURVE",
"750 171 CURVE SMOOTH",
"750 669 LINE SMOOTH",
"750 686 OFFCURVE",
"736 700 OFFCURVE",
"719 700 CURVE SMOOTH",
"81 700 LINE SMOOTH",
"64 700 OFFCURVE",
"50 686 OFFCURVE",
"50 669 CURVE SMOOTH"
);
},
{
closed = 1;
nodes = (
"361 280 LINE SMOOTH",
"344 280 OFFCURVE",
"330 294 OFFCURVE",
"330 311 CURVE SMOOTH",
"330 389 LINE SMOOTH",
"330 406 OFFCURVE",
"344 420 OFFCURVE",
"361 420 CURVE SMOOTH",
"439 420 LINE SMOOTH",
"456 420 OFFCURVE",
"470 406 OFFCURVE",
"470 389 CURVE SMOOTH",
"470 311 LINE SMOOTH",
"470 294 OFFCURVE",
"456 280 OFFCURVE",
"439 280 CURVE SMOOTH"
);
}
);
width = 800;
}
);
unicode = 0050;
},
{
glyphname = R;
lastChange = "2018-03-15 02:15:59 +0000";
layers = (
{
layerId = "B5009CFD-227C-4A9D-A9B5-DAE3AEABB0A3";
paths = (
{
closed = 1;
nodes = (
"740 275 LINE SMOOTH",
"710 305 OFFCURVE",
"698 349 OFFCURVE",
"719 349 CURVE SMOOTH",
"736 349 OFFCURVE",
"750 363 OFFCURVE",
"750 380 CURVE SMOOTH",
"750 669 LINE SMOOTH",
"750 686 OFFCURVE",
"736 700 OFFCURVE",
"719 700 CURVE SMOOTH",
"81 700 LINE SMOOTH",
"64 700 OFFCURVE",
"50 686 OFFCURVE",
"50 669 CURVE SMOOTH",
"50 31 LINE SMOOTH",
"50 14 OFFCURVE",
"64 0 OFFCURVE",
"81 0 CURVE SMOOTH",
"299 0 LINE SMOOTH",
"316 0 OFFCURVE",
"330 14 OFFCURVE",
"330 31 CURVE SMOOTH",
"330 42 LINE SMOOTH",
"330 59 OFFCURVE",
"374 40 OFFCURVE",
"404 10 CURVE SMOOTH",
"407 7 LINE SMOOTH",
"412 2 OFFCURVE",
"418 0 OFFCURVE",
"424 0 CURVE SMOOTH",
"719 0 LINE SMOOTH",
"736 0 OFFCURVE",
"750 14 OFFCURVE",
"750 31 CURVE SMOOTH",
"750 255 LINE SMOOTH",
"750 261 OFFCURVE",
"748 267 OFFCURVE",
"743 272 CURVE SMOOTH"
);
},
{
closed = 1;
nodes = (
"361 280 LINE SMOOTH",
"344 280 OFFCURVE",
"330 294 OFFCURVE",
"330 311 CURVE SMOOTH",
"330 389 LINE SMOOTH",
"330 406 OFFCURVE",
"344 420 OFFCURVE",
"361 420 CURVE SMOOTH",
"439 420 LINE SMOOTH",
"456 420 OFFCURVE",
"470 406 OFFCURVE",
"470 389 CURVE SMOOTH",
"470 311 LINE SMOOTH",
"470 294 OFFCURVE",
"456 280 OFFCURVE",
"439 280 CURVE SMOOTH"
);
}
);
width = 800;
}
);
unicode = 0052;
},
{
glyphname = S;
lastChange = "2018-03-15 02:16:19 +0000";
layers = (
{
layerId = "B5009CFD-227C-4A9D-A9B5-DAE3AEABB0A3";
paths = (
{
closed = 1;
nodes = (
"719 0 LINE SMOOTH",
"736 0 OFFCURVE",
"750 14 OFFCURVE",
"750 31 CURVE SMOOTH",
"750 388 LINE SMOOTH",
"750 405 OFFCURVE",
"736 419 OFFCURVE",
"719 419 CURVE SMOOTH",
"641 419 LINE SMOOTH",
"624 419 OFFCURVE",
"610 433 OFFCURVE",
"610 450 CURVE SMOOTH",
"610 528 LINE SMOOTH",
"610 545 OFFCURVE",
"624 559 OFFCURVE",
"641 559 CURVE SMOOTH",
"719 559 LINE SMOOTH",
"736 559 OFFCURVE",
"750 573 OFFCURVE",
"750 590 CURVE SMOOTH",
"750 669 LINE SMOOTH",
"750 686 OFFCURVE",
"736 700 OFFCURVE",
"719 700 CURVE SMOOTH",
"81 700 LINE SMOOTH",
"64 700 OFFCURVE",
"50 686 OFFCURVE",
"50 669 CURVE SMOOTH",
"50 311 LINE SMOOTH",
"50 294 OFFCURVE",
"64 280 OFFCURVE",
"81 280 CURVE SMOOTH",
"159 280 LINE SMOOTH",
"176 280 OFFCURVE",
"190 266 OFFCURVE",
"190 249 CURVE SMOOTH",
"190 171 LINE SMOOTH",
"190 154 OFFCURVE",
"176 140 OFFCURVE",
"159 140 CURVE SMOOTH",
"81 140 LINE SMOOTH",
"64 140 OFFCURVE",
"50 126 OFFCURVE",
"50 109 CURVE SMOOTH",
"50 31 LINE SMOOTH",
"50 14 OFFCURVE",
"64 0 OFFCURVE",
"81 0 CURVE SMOOTH"
);
}
);
width = 800;
}
);
unicode = 0053;
},
{
glyphname = T;
lastChange = "2018-03-15 02:26:46 +0000";
layers = (
{
layerId = "B5009CFD-227C-4A9D-A9B5-DAE3AEABB0A3";
paths = (
{
closed = 1;
nodes = (
"50 451 LINE SMOOTH",
"50 434 OFFCURVE",
"64 420 OFFCURVE",
"81 420 CURVE SMOOTH",
"159 420 LINE SMOOTH",
"176 420 OFFCURVE",
"190 406 OFFCURVE",
"190 389 CURVE SMOOTH",
"190 31 LINE SMOOTH",
"190 14 OFFCURVE",
"204 0 OFFCURVE",
"221 0 CURVE SMOOTH",
"579 0 LINE SMOOTH",
"596 0 OFFCURVE",
"610 14 OFFCURVE",
"610 31 CURVE SMOOTH",
"610 389 LINE SMOOTH",
"610 406 OFFCURVE",
"624 420 OFFCURVE",
"641 420 CURVE SMOOTH",
"719 420 LINE SMOOTH",
"736 420 OFFCURVE",
"750 434 OFFCURVE",
"750 451 CURVE SMOOTH",
"750 669 LINE SMOOTH",
"750 686 OFFCURVE",
"736 700 OFFCURVE",
"719 700 CURVE SMOOTH",
"81 700 LINE SMOOTH",
"64 700 OFFCURVE",
"50 686 OFFCURVE",
"50 669 CURVE SMOOTH"
);
}
);
width = 800;
}
);
unicode = 0054;
},
{
glyphname = U;
lastChange = "2018-03-15 02:16:33 +0000";
layers = (
{
layerId = "B5009CFD-227C-4A9D-A9B5-DAE3AEABB0A3";
paths = (
{
closed = 1;
nodes = (
"719 0 LINE SMOOTH",
"736 0 OFFCURVE",
"750 14 OFFCURVE",
"750 31 CURVE SMOOTH",
"750 669 LINE SMOOTH",
"750 686 OFFCURVE",
"736 700 OFFCURVE",
"719 700 CURVE SMOOTH",
"501 700 LINE SMOOTH",
"484 700 OFFCURVE",
"470 686 OFFCURVE",
"470 669 CURVE SMOOTH",
"470 591 LINE SMOOTH",
"470 574 OFFCURVE",
"456 560 OFFCURVE",
"439 560 CURVE SMOOTH",
"361 560 LINE SMOOTH",
"344 560 OFFCURVE",
"330 574 OFFCURVE",
"330 591 CURVE SMOOTH",
"330 669 LINE SMOOTH",
"330 686 OFFCURVE",
"316 700 OFFCURVE",
"299 700 CURVE SMOOTH",
"81 700 LINE SMOOTH",
"64 700 OFFCURVE",
"50 686 OFFCURVE",
"50 669 CURVE SMOOTH",
"50 31 LINE SMOOTH",
"50 14 OFFCURVE",
"64 0 OFFCURVE",
"81 0 CURVE SMOOTH"
);
}
);
width = 800;
}
);
unicode = 0055;
},
{
glyphname = V;
lastChange = "2018-03-15 02:16:42 +0000";
layers = (
{
layerId = "B5009CFD-227C-4A9D-A9B5-DAE3AEABB0A3";
paths = (
{
closed = 1;
nodes = (
"127 7 LINE SMOOTH",
"132 2 OFFCURVE",
"138 0 OFFCURVE",
"144 0 CURVE SMOOTH",
"656 0 LINE SMOOTH",
"662 0 OFFCURVE",
"668 2 OFFCURVE",
"673 7 CURVE SMOOTH",
"743 77 LINE SMOOTH",
"748 82 OFFCURVE",
"750 88 OFFCURVE",
"750 94 CURVE SMOOTH",
"750 669 LINE SMOOTH",
"750 686 OFFCURVE",
"736 700 OFFCURVE",
"719 700 CURVE SMOOTH",
"494 700 LINE SMOOTH",
"488 700 OFFCURVE",
"482 698 OFFCURVE",
"477 693 CURVE SMOOTH",
"422 638 LINE SMOOTH",
"410 626 OFFCURVE",
"390 626 OFFCURVE",
"378 638 CURVE SMOOTH",
"323 693 LINE SMOOTH",
"318 698 OFFCURVE",
"312 700 OFFCURVE",
"306 700 CURVE SMOOTH",
"81 700 LINE SMOOTH",
"64 700 OFFCURVE",
"50 686 OFFCURVE",
"50 669 CURVE SMOOTH",
"50 94 LINE SMOOTH",
"50 88 OFFCURVE",
"52 82 OFFCURVE",
"57 77 CURVE SMOOTH"
);
}
);
width = 800;
}
);
unicode = 0056;
},
{
glyphname = X;
lastChange = "2018-03-15 02:26:47 +0000";
layers = (
{
layerId = "B5009CFD-227C-4A9D-A9B5-DAE3AEABB0A3";
paths = (
{
closed = 1;
nodes = (
"494 700 LINE SMOOTH",
"488 700 OFFCURVE",
"482 698 OFFCURVE",
"477 693 CURVE SMOOTH",
"422 638 LINE SMOOTH",
"410 626 OFFCURVE",
"390 626 OFFCURVE",
"378 638 CURVE SMOOTH",
"323 693 LINE SMOOTH",
"318 698 OFFCURVE",
"312 700 OFFCURVE",
"306 700 CURVE SMOOTH",
"81 700 LINE SMOOTH",
"64 700 OFFCURVE",
"50 686 OFFCURVE",
"50 669 CURVE SMOOTH",
"50 444 LINE SMOOTH",
"50 438 OFFCURVE",
"52 432 OFFCURVE",
"57 427 CURVE SMOOTH",
"112 372 LINE SMOOTH",
"124 360 OFFCURVE",
"124 340 OFFCURVE",
"112 328 CURVE SMOOTH",
"57 273 LINE SMOOTH",
"52 268 OFFCURVE",
"50 262 OFFCURVE",
"50 256 CURVE SMOOTH",
"50 31 LINE SMOOTH",
"50 14 OFFCURVE",
"64 0 OFFCURVE",
"81 0 CURVE SMOOTH",
"306 0 LINE SMOOTH",
"312 0 OFFCURVE",
"318 2 OFFCURVE",
"323 7 CURVE SMOOTH",
"378 62 LINE SMOOTH",
"390 74 OFFCURVE",
"410 74 OFFCURVE",
"422 62 CURVE SMOOTH",
"477 7 LINE SMOOTH",
"482 2 OFFCURVE",
"488 0 OFFCURVE",
"494 0 CURVE SMOOTH",
"719 0 LINE SMOOTH",
"736 0 OFFCURVE",
"750 14 OFFCURVE",
"750 31 CURVE SMOOTH",
"750 256 LINE SMOOTH",
"750 262 OFFCURVE",
"748 268 OFFCURVE",
"743 273 CURVE SMOOTH",
"688 328 LINE SMOOTH",
"676 340 OFFCURVE",
"676 360 OFFCURVE",
"688 372 CURVE SMOOTH",
"743 427 LINE SMOOTH",
"748 432 OFFCURVE",
"750 438 OFFCURVE",
"750 444 CURVE SMOOTH",
"750 669 LINE SMOOTH",
"750 686 OFFCURVE",
"736 700 OFFCURVE",
"719 700 CURVE SMOOTH"
);
}
);
width = 800;
}
);
unicode = 0058;
},
{
glyphname = Y;
lastChange = "2018-03-15 02:17:02 +0000";
layers = (
{
layerId = "B5009CFD-227C-4A9D-A9B5-DAE3AEABB0A3";
paths = (
{
closed = 1;
nodes = (
"719 0 LINE SMOOTH",
"736 0 OFFCURVE",
"750 14 OFFCURVE",
"750 31 CURVE SMOOTH",
"750 669 LINE SMOOTH",
"750 686 OFFCURVE",
"736 700 OFFCURVE",
"719 700 CURVE SMOOTH",
"501 700 LINE SMOOTH",
"484 700 OFFCURVE",
"470 686 OFFCURVE",
"470 669 CURVE SMOOTH",
"470 591 LINE SMOOTH",
"470 574 OFFCURVE",
"456 560 OFFCURVE",
"439 560 CURVE SMOOTH",
"361 560 LINE SMOOTH",
"344 560 OFFCURVE",
"330 574 OFFCURVE",
"330 591 CURVE SMOOTH",
"330 669 LINE SMOOTH",
"330 686 OFFCURVE",
"316 700 OFFCURVE",
"299 700 CURVE SMOOTH",
"81 700 LINE SMOOTH",
"64 700 OFFCURVE",
"50 686 OFFCURVE",
"50 669 CURVE SMOOTH",
"50 311 LINE SMOOTH",
"50 294 OFFCURVE",
"64 280 OFFCURVE",
"81 280 CURVE SMOOTH",
"159 280 LINE SMOOTH",
"176 280 OFFCURVE",
"190 266 OFFCURVE",
"190 249 CURVE SMOOTH",
"190 171 LINE SMOOTH",
"190 154 OFFCURVE",
"176 140 OFFCURVE",
"159 140 CURVE SMOOTH",
"81 140 LINE SMOOTH",
"64 140 OFFCURVE",
"50 126 OFFCURVE",
"50 109 CURVE SMOOTH",
"50 31 LINE SMOOTH",
"50 14 OFFCURVE",
"64 0 OFFCURVE",
"81 0 CURVE SMOOTH"
);
}
);
width = 800;
}
);
unicode = 0059;
},
{
glyphname = Z;
lastChange = "2018-03-15 02:17:07 +0000";
layers = (
{
layerId = "B5009CFD-227C-4A9D-A9B5-DAE3AEABB0A3";
paths = (
{
closed = 1;
nodes = (
"749 364 LINE",
"750 364 LINE SMOOTH",
"750 364 OFFCURVE",
"750 367 OFFCURVE",
"750 374 CURVE SMOOTH",
"750 669 LINE SMOOTH",
"750 686 OFFCURVE",
"736 700 OFFCURVE",
"719 700 CURVE SMOOTH",
"81 700 LINE SMOOTH",
"64 700 OFFCURVE",
"50 686 OFFCURVE",
"50 669 CURVE SMOOTH",
"50 451 LINE SMOOTH",
"50 434 OFFCURVE",
"64 420 OFFCURVE",
"81 420 CURVE SMOOTH",
"93 420 LINE SMOOTH",
"110 420 OFFCURVE",
"91 376 OFFCURVE",
"61 346 CURVE SMOOTH",
"51 336 LINE",
"51 336 LINE SMOOTH",
"51 336 OFFCURVE",
"50 332 OFFCURVE",
"50 326 CURVE SMOOTH",
"50 31 LINE SMOOTH",
"50 14 OFFCURVE",
"64 0 OFFCURVE",
"81 0 CURVE SMOOTH",
"719 0 LINE SMOOTH",
"736 0 OFFCURVE",
"750 14 OFFCURVE",
"750 31 CURVE SMOOTH",
"750 249 LINE SMOOTH",
"750 266 OFFCURVE",
"736 280 OFFCURVE",
"719 280 CURVE SMOOTH",
"708 280 LINE SMOOTH",
"691 280 OFFCURVE",
"690 305 OFFCURVE",
"707 322 CURVE SMOOTH"
);
}
);
width = 800;
}
);
unicode = 005A;
},
{
glyphname = a;
lastChange = "2018-03-15 02:17:13 +0000";
layers = (
{
layerId = "B5009CFD-227C-4A9D-A9B5-DAE3AEABB0A3";
paths = (
{
closed = 1;
nodes = (
"50 31 LINE SMOOTH",
"50 14 OFFCURVE",
"64 0 OFFCURVE",
"81 0 CURVE SMOOTH",
"374 0 LINE SMOOTH",
"380 0 OFFCURVE",
"386 2 OFFCURVE",
"391 7 CURVE SMOOTH",
"426 42 LINE SMOOTH",
"443 59 OFFCURVE",
"468 52 OFFCURVE",
"468 31 CURVE SMOOTH",
"468 14 OFFCURVE",
"482 0 OFFCURVE",
"499 0 CURVE SMOOTH",
"719 0 LINE SMOOTH",
"736 0 OFFCURVE",
"750 14 OFFCURVE",
"750 31 CURVE SMOOTH",
"750 669 LINE SMOOTH",
"750 686 OFFCURVE",
"736 700 OFFCURVE",
"719 700 CURVE SMOOTH",
"81 700 LINE SMOOTH",
"64 700 OFFCURVE",
"50 686 OFFCURVE",
"50 669 CURVE SMOOTH"
);
},
{
closed = 1;
nodes = (
"361 272 LINE SMOOTH",
"344 272 OFFCURVE",
"330 286 OFFCURVE",
"330 303 CURVE SMOOTH",
"330 381 LINE SMOOTH",
"330 398 OFFCURVE",
"344 412 OFFCURVE",
"361 412 CURVE SMOOTH",
"439 412 LINE SMOOTH",
"456 412 OFFCURVE",
"470 398 OFFCURVE",
"470 381 CURVE SMOOTH",
"470 303 LINE SMOOTH",
"470 286 OFFCURVE",
"456 272 OFFCURVE",
"439 272 CURVE SMOOTH"
);
}
);
width = 800;
}
);
unicode = 0061;
},
{
glyphname = b;
lastChange = "2018-03-15 02:17:28 +0000";
layers = (
{
layerId = "B5009CFD-227C-4A9D-A9B5-DAE3AEABB0A3";
paths = (
{
closed = 1;
nodes = (
"719 0 LINE SMOOTH",
"736 0 OFFCURVE",
"750 14 OFFCURVE",
"750 31 CURVE SMOOTH",
"750 529 LINE SMOOTH",
"750 546 OFFCURVE",
"736 560 OFFCURVE",
"719 560 CURVE SMOOTH",
"642 560 LINE SMOOTH",
"625 560 OFFCURVE",
"611 574 OFFCURVE",
"611 591 CURVE SMOOTH",
"611 669 LINE SMOOTH",
"611 686 OFFCURVE",
"597 700 OFFCURVE",
"580 700 CURVE SMOOTH",
"81 700 LINE SMOOTH",
"64 700 OFFCURVE",
"50 686 OFFCURVE",
"50 669 CURVE SMOOTH",
"50 31 LINE SMOOTH",
"50 14 OFFCURVE",
"64 0 OFFCURVE",
"81 0 CURVE SMOOTH"
);
},
{
closed = 1;
nodes = (
"330 318 LINE SMOOTH",
"330 335 OFFCURVE",
"344 349 OFFCURVE",
"361 349 CURVE SMOOTH",
"439 349 LINE SMOOTH",
"456 349 OFFCURVE",
"470 335 OFFCURVE",
"470 318 CURVE SMOOTH",
"470 240 LINE SMOOTH",
"470 223 OFFCURVE",
"456 209 OFFCURVE",
"439 209 CURVE SMOOTH",
"361 209 LINE SMOOTH",
"344 209 OFFCURVE",
"330 223 OFFCURVE",
"330 240 CURVE SMOOTH"
);
}
);
width = 800;
}
);
unicode = 0062;
},
{
glyphname = e;
lastChange = "2018-03-15 02:26:47 +0000";
layers = (
{
layerId = "B5009CFD-227C-4A9D-A9B5-DAE3AEABB0A3";
paths = (
{
closed = 1;
nodes = (
"750 669 LINE SMOOTH",
"750 686 OFFCURVE",
"736 700 OFFCURVE",
"719 700 CURVE SMOOTH",
"81 700 LINE SMOOTH",
"64 700 OFFCURVE",
"50 686 OFFCURVE",
"50 669 CURVE SMOOTH",
"50 31 LINE SMOOTH",
"50 14 OFFCURVE",
"64 0 OFFCURVE",
"81 0 CURVE SMOOTH",
"719 0 LINE SMOOTH",
"736 0 OFFCURVE",
"750 14 OFFCURVE",
"750 31 CURVE SMOOTH",
"750 186 LINE SMOOTH",
"750 192 OFFCURVE",
"748 198 OFFCURVE",
"743 203 CURVE SMOOTH",
"708 238 LINE SMOOTH",
"691 255 OFFCURVE",
"698 280 OFFCURVE",
"719 280 CURVE SMOOTH",
"736 280 OFFCURVE",
"750 294 OFFCURVE",
"750 311 CURVE SMOOTH"
);
},
{
closed = 1;
nodes = (
"470 311 LINE SMOOTH",
"470 294 OFFCURVE",
"456 280 OFFCURVE",
"439 280 CURVE SMOOTH",
"361 280 LINE SMOOTH",
"344 280 OFFCURVE",
"330 294 OFFCURVE",
"330 311 CURVE SMOOTH",
"330 389 LINE SMOOTH",
"330 406 OFFCURVE",
"344 420 OFFCURVE",
"361 420 CURVE SMOOTH",
"439 420 LINE SMOOTH",
"456 420 OFFCURVE",
"470 406 OFFCURVE",
"470 389 CURVE SMOOTH"
);
}
);
width = 800;
}
);
unicode = 0065;
},
{
glyphname = h;
lastChange = "2018-03-15 02:26:47 +0000";
layers = (
{
layerId = "B5009CFD-227C-4A9D-A9B5-DAE3AEABB0A3";
paths = (
{
closed = 1;
nodes = (
"190 809 LINE SMOOTH",
"190 826 OFFCURVE",
"176 840 OFFCURVE",
"159 840 CURVE SMOOTH",
"81 840 LINE SMOOTH",
"64 840 OFFCURVE",
"50 826 OFFCURVE",
"50 809 CURVE SMOOTH",
"50 31 LINE SMOOTH",
"50 14 OFFCURVE",
"64 0 OFFCURVE",
"81 0 CURVE SMOOTH",
"299 0 LINE SMOOTH",
"316 0 OFFCURVE",
"330 14 OFFCURVE",
"330 31 CURVE SMOOTH",
"330 249 LINE SMOOTH",
"330 266 OFFCURVE",
"344 280 OFFCURVE",
"361 280 CURVE SMOOTH",
"439 280 LINE SMOOTH",
"456 280 OFFCURVE",
"470 266 OFFCURVE",
"470 249 CURVE SMOOTH",
"470 31 LINE SMOOTH",
"470 14 OFFCURVE",
"484 0 OFFCURVE",
"501 0 CURVE SMOOTH",
"719 0 LINE SMOOTH",
"736 0 OFFCURVE",
"750 14 OFFCURVE",
"750 31 CURVE SMOOTH",
"750 669 LINE SMOOTH",
"750 686 OFFCURVE",
"736 700 OFFCURVE",
"719 700 CURVE SMOOTH",
"221 700 LINE SMOOTH",
"204 700 OFFCURVE",
"190 714 OFFCURVE",
"190 731 CURVE SMOOTH"
);
}
);
width = 800;
}
);
unicode = 0068;
},
{
glyphname = i;
lastChange = "2018-03-15 02:17:57 +0000";
layers = (
{
layerId = "B5009CFD-227C-4A9D-A9B5-DAE3AEABB0A3";
paths = (
{
closed = 1;
nodes = (
"50 31 LINE SMOOTH",
"50 14 OFFCURVE",
"64 0 OFFCURVE",
"81 0 CURVE SMOOTH",
"299 0 LINE SMOOTH",
"316 0 OFFCURVE",
"330 14 OFFCURVE",
"330 31 CURVE SMOOTH",
"330 391 LINE SMOOTH",
"330 408 OFFCURVE",
"316 422 OFFCURVE",
"299 422 CURVE SMOOTH",
"81 422 LINE SMOOTH",
"64 422 OFFCURVE",
"50 408 OFFCURVE",
"50 391 CURVE SMOOTH"
);
},
{
closed = 1;
nodes = (
"330 669 LINE SMOOTH",
"330 686 OFFCURVE",
"316 700 OFFCURVE",
"299 700 CURVE SMOOTH",
"81 700 LINE SMOOTH",
"64 700 OFFCURVE",
"50 686 OFFCURVE",
"50 669 CURVE SMOOTH",
"50 593 LINE SMOOTH",
"50 576 OFFCURVE",
"64 562 OFFCURVE",
"81 562 CURVE SMOOTH",
"299 562 LINE SMOOTH",
"316 562 OFFCURVE",
"330 576 OFFCURVE",
"330 593 CURVE SMOOTH"
);
}
);
width = 380;
}
);
unicode = 0069;
},
{
glyphname = j;
lastChange = "2018-03-15 02:18:03 +0000";
layers = (
{
layerId = "B5009CFD-227C-4A9D-A9B5-DAE3AEABB0A3";
paths = (
{
closed = 1;
nodes = (
"50 -109 LINE SMOOTH",
"50 -126 OFFCURVE",
"64 -140 OFFCURVE",
"81 -140 CURVE SMOOTH",
"299 -140 LINE SMOOTH",
"316 -140 OFFCURVE",
"330 -126 OFFCURVE",
"330 -109 CURVE SMOOTH",
"330 391 LINE SMOOTH",
"330 408 OFFCURVE",
"316 422 OFFCURVE",
"299 422 CURVE SMOOTH",
"81 422 LINE SMOOTH",
"64 422 OFFCURVE",
"50 408 OFFCURVE",
"50 391 CURVE SMOOTH"
);
},
{
closed = 1;
nodes = (
"50 593 LINE SMOOTH",
"50 576 OFFCURVE",
"64 562 OFFCURVE",
"81 562 CURVE SMOOTH",
"299 562 LINE SMOOTH",
"316 562 OFFCURVE",
"330 576 OFFCURVE",
"330 593 CURVE SMOOTH",
"330 670 LINE SMOOTH",
"330 687 OFFCURVE",
"316 701 OFFCURVE",
"299 701 CURVE SMOOTH",
"81 701 LINE SMOOTH",
"64 701 OFFCURVE",
"50 687 OFFCURVE",
"50 670 CURVE SMOOTH"
);
}
);
width = 380;
}
);
unicode = 006A;
},
{
glyphname = k;
lastChange = "2018-03-15 02:18:09 +0000";
layers = (
{
layerId = "B5009CFD-227C-4A9D-A9B5-DAE3AEABB0A3";
paths = (
{
closed = 1;
nodes = (
"590 700 LINE SMOOTH",
"584 700 OFFCURVE",
"578 697 OFFCURVE",
"573 693 CURVE SMOOTH",
"502 623 LINE SMOOTH",
"497 619 OFFCURVE",
"491 616 OFFCURVE",
"485 616 CURVE SMOOTH",
"386 616 LINE SMOOTH",
"369 616 OFFCURVE",
"355 630 OFFCURVE",
"355 647 CURVE SMOOTH",
"355 669 LINE SMOOTH",
"355 686 OFFCURVE",
"341 700 OFFCURVE",
"324 700 CURVE SMOOTH",
"81 700 LINE SMOOTH",
"64 700 OFFCURVE",
"50 686 OFFCURVE",
"50 669 CURVE SMOOTH",
"50 31 LINE SMOOTH",
"50 14 OFFCURVE",
"64 0 OFFCURVE",
"81 0 CURVE SMOOTH",
"324 0 LINE SMOOTH",
"341 0 OFFCURVE",
"355 14 OFFCURVE",
"355 31 CURVE SMOOTH",
"355 53 LINE SMOOTH",
"355 70 OFFCURVE",
"369 84 OFFCURVE",
"386 84 CURVE SMOOTH",
"485 84 LINE SMOOTH",
"491 84 OFFCURVE",
"497 81 OFFCURVE",
"502 77 CURVE SMOOTH",
"573 7 LINE SMOOTH",
"578 3 OFFCURVE",
"584 0 OFFCURVE",
"590 0 CURVE SMOOTH",
"719 0 LINE SMOOTH",
"736 0 OFFCURVE",
"750 14 OFFCURVE",
"750 31 CURVE SMOOTH",
"750 256 LINE SMOOTH",
"750 262 OFFCURVE",
"748 268 OFFCURVE",
"743 273 CURVE SMOOTH",
"687 328 LINE SMOOTH",
"674 340 OFFCURVE",
"674 360 OFFCURVE",
"687 372 CURVE SMOOTH",
"743 427 LINE SMOOTH",
"748 432 OFFCURVE",
"750 438 OFFCURVE",
"750 444 CURVE SMOOTH",
"750 669 LINE SMOOTH",
"750 686 OFFCURVE",
"736 700 OFFCURVE",
"719 700 CURVE SMOOTH"
);
}
);
width = 800;
}
);
unicode = 006B;
},
{
glyphname = l;
lastChange = "2018-03-15 02:18:14 +0000";
layers = (
{
layerId = "B5009CFD-227C-4A9D-A9B5-DAE3AEABB0A3";
paths = (
{
closed = 1;
nodes = (
"610 669 LINE SMOOTH",
"610 686 OFFCURVE",
"596 700 OFFCURVE",
"579 700 CURVE SMOOTH",
"81 700 LINE SMOOTH",
"64 700 OFFCURVE",
"50 686 OFFCURVE",
"50 669 CURVE SMOOTH",
"50 31 LINE SMOOTH",
"50 14 OFFCURVE",
"64 0 OFFCURVE",
"81 0 CURVE SMOOTH",
"719 0 LINE SMOOTH",
"736 0 OFFCURVE",
"750 14 OFFCURVE",
"750 31 CURVE SMOOTH",
"750 390 LINE SMOOTH",
"750 407 OFFCURVE",
"736 421 OFFCURVE",
"719 421 CURVE SMOOTH",
"641 421 LINE SMOOTH",
"624 421 OFFCURVE",
"610 435 OFFCURVE",
"610 452 CURVE SMOOTH"
);
}
);
width = 800;
}
);
unicode = 006C;
},
{
glyphname = m;
lastChange = "2018-03-15 02:18:43 +0000";
layers = (
{
layerId = "B5009CFD-227C-4A9D-A9B5-DAE3AEABB0A3";
paths = (
{
closed = 1;
nodes = (
"160 0 LINE SMOOTH",
"177 0 OFFCURVE",
"191 14 OFFCURVE",
"191 31 CURVE SMOOTH",
"191 109 LINE SMOOTH",
"191 126 OFFCURVE",
"205 140 OFFCURVE",
"222 140 CURVE SMOOTH",
"300 140 LINE SMOOTH",
"317 140 OFFCURVE",
"331 126 OFFCURVE",
"331 109 CURVE SMOOTH",
"331 31 LINE SMOOTH",
"331 14 OFFCURVE",
"345 0 OFFCURVE",
"362 0 CURVE SMOOTH",
"440 0 LINE SMOOTH",
"457 0 OFFCURVE",
"471 14 OFFCURVE",
"471 31 CURVE SMOOTH",
"471 109 LINE SMOOTH",
"471 126 OFFCURVE",
"485 140 OFFCURVE",
"502 140 CURVE SMOOTH",
"580 140 LINE SMOOTH",
"597 140 OFFCURVE",
"611 126 OFFCURVE",
"611 109 CURVE SMOOTH",
"611 31 LINE SMOOTH",
"611 14 OFFCURVE",
"625 0 OFFCURVE",
"642 0 CURVE SMOOTH",
"719 0 LINE SMOOTH",
"736 0 OFFCURVE",
"750 14 OFFCURVE",
"750 31 CURVE SMOOTH",
"751 669 LINE SMOOTH",
"751 686 OFFCURVE",
"737 700 OFFCURVE",
"720 700 CURVE SMOOTH",
"81 700 LINE SMOOTH",
"64 700 OFFCURVE",
"50 686 OFFCURVE",
"50 669 CURVE SMOOTH",
"50 31 LINE SMOOTH",
"50 14 OFFCURVE",
"64 0 OFFCURVE",
"81 0 CURVE SMOOTH"
);
}
);
width = 801;
}
);
unicode = 006D;
},
{
glyphname = n;
lastChange = "2018-03-15 02:18:49 +0000";
layers = (
{
layerId = "B5009CFD-227C-4A9D-A9B5-DAE3AEABB0A3";
paths = (
{
closed = 1;
nodes = (
"414 699 LINE",
"372 657 LINE SMOOTH",
"355 640 OFFCURVE",
"330 647 OFFCURVE",
"330 669 CURVE SMOOTH",
"330 686 OFFCURVE",
"316 700 OFFCURVE",
"299 700 CURVE SMOOTH",
"81 700 LINE SMOOTH",
"64 700 OFFCURVE",
"50 686 OFFCURVE",
"50 669 CURVE SMOOTH",
"50 31 LINE SMOOTH",
"50 14 OFFCURVE",
"64 0 OFFCURVE",
"81 0 CURVE SMOOTH",
"300 0 LINE SMOOTH",
"317 0 OFFCURVE",
"331 14 OFFCURVE",
"331 31 CURVE SMOOTH",
"331 109 LINE SMOOTH",
"331 126 OFFCURVE",
"345 140 OFFCURVE",
"362 140 CURVE SMOOTH",
"440 140 LINE SMOOTH",
"457 140 OFFCURVE",
"471 126 OFFCURVE",
"471 109 CURVE SMOOTH",
"471 31 LINE SMOOTH",
"471 14 OFFCURVE",
"485 0 OFFCURVE",
"502 0 CURVE SMOOTH",
"719 0 LINE SMOOTH",
"736 0 OFFCURVE",
"750 14 OFFCURVE",
"750 31 CURVE SMOOTH",
"750 669 LINE SMOOTH",
"750 686 OFFCURVE",
"736 700 OFFCURVE",
"719 700 CURVE SMOOTH",
"424 700 LINE SMOOTH",
"417 700 OFFCURVE",
"414 700 OFFCURVE",
"414 700 CURVE SMOOTH"
);
}
);
width = 800;
}
);
unicode = 006E;
},
{
glyphname = q;
lastChange = "2018-03-15 02:19:05 +0000";
layers = (
{
layerId = "B5009CFD-227C-4A9D-A9B5-DAE3AEABB0A3";
paths = (
{
closed = 1;
nodes = (
"50 32 LINE SMOOTH",
"50 15 OFFCURVE",
"64 1 OFFCURVE",
"81 1 CURVE SMOOTH",
"579 1 LINE SMOOTH",
"596 1 OFFCURVE",
"610 -13 OFFCURVE",
"610 -30 CURVE SMOOTH",
"610 -108 LINE SMOOTH",
"610 -125 OFFCURVE",
"624 -139 OFFCURVE",
"641 -139 CURVE SMOOTH",
"719 -139 LINE SMOOTH",
"736 -139 OFFCURVE",
"750 -125 OFFCURVE",
"750 -108 CURVE SMOOTH",
"750 670 LINE SMOOTH",
"750 687 OFFCURVE",
"736 701 OFFCURVE",
"719 701 CURVE SMOOTH",
"81 701 LINE SMOOTH",
"64 701 OFFCURVE",
"50 687 OFFCURVE",
"50 670 CURVE SMOOTH"
);
},
{
closed = 1;
nodes = (
"470 298 LINE SMOOTH",
"470 281 OFFCURVE",
"456 267 OFFCURVE",
"439 267 CURVE SMOOTH",
"361 267 LINE SMOOTH",
"344 267 OFFCURVE",
"330 281 OFFCURVE",
"330 298 CURVE SMOOTH",
"330 375 LINE SMOOTH",
"330 392 OFFCURVE",
"344 406 OFFCURVE",
"361 406 CURVE SMOOTH",
"439 406 LINE SMOOTH",
"456 406 OFFCURVE",
"470 392 OFFCURVE",
"470 375 CURVE SMOOTH"
);
}
);
width = 800;
}
);
unicode = 0071;
},
{
glyphname = r;
lastChange = "2018-03-15 02:26:47 +0000";
layers = (
{
layerId = "B5009CFD-227C-4A9D-A9B5-DAE3AEABB0A3";
paths = (
{
closed = 1;
nodes = (
"411 688 LINE SMOOTH",
"381 659 OFFCURVE",
"338 648 OFFCURVE",
"338 669 CURVE SMOOTH",
"338 686 OFFCURVE",
"324 700 OFFCURVE",
"307 700 CURVE SMOOTH",
"81 700 LINE SMOOTH",
"64 700 OFFCURVE",
"50 686 OFFCURVE",
"50 669 CURVE SMOOTH",
"50 31 LINE SMOOTH",
"50 14 OFFCURVE",
"64 0 OFFCURVE",
"81 0 CURVE SMOOTH",
"574 0 LINE SMOOTH",
"591 0 OFFCURVE",
"605 14 OFFCURVE",
"605 31 CURVE SMOOTH",
"605 389 LINE SMOOTH",
"605 406 OFFCURVE",
"619 420 OFFCURVE",
"636 420 CURVE SMOOTH",
"719 420 LINE SMOOTH",
"736 420 OFFCURVE",
"750 434 OFFCURVE",
"750 451 CURVE SMOOTH",
"750 669 LINE SMOOTH",
"750 686 OFFCURVE",
"736 700 OFFCURVE",
"719 700 CURVE SMOOTH",
"433 700 LINE SMOOTH",
"427 700 OFFCURVE",
"421 697 OFFCURVE",
"416 693 CURVE SMOOTH"
);
}
);
width = 800;
}
);
unicode = 0072;
},
{
glyphname = s;
lastChange = "2018-03-15 02:19:25 +0000";
layers = (
{
layerId = "B5009CFD-227C-4A9D-A9B5-DAE3AEABB0A3";
paths = (
{
closed = 1;
nodes = (
"719 0 LINE SMOOTH",
"736 0 OFFCURVE",
"750 14 OFFCURVE",
"750 31 CURVE SMOOTH",
"750 388 LINE SMOOTH",
"750 405 OFFCURVE",
"736 419 OFFCURVE",
"719 419 CURVE SMOOTH",
"501 419 LINE SMOOTH",
"484 419 OFFCURVE",
"470 433 OFFCURVE",
"470 450 CURVE SMOOTH",
"470 528 LINE SMOOTH",
"470 545 OFFCURVE",
"484 559 OFFCURVE",
"501 559 CURVE SMOOTH",
"719 559 LINE SMOOTH",
"736 559 OFFCURVE",
"750 573 OFFCURVE",
"750 590 CURVE SMOOTH",
"750 669 LINE SMOOTH",
"750 686 OFFCURVE",
"736 700 OFFCURVE",
"719 700 CURVE SMOOTH",
"81 700 LINE SMOOTH",
"64 700 OFFCURVE",
"50 686 OFFCURVE",
"50 669 CURVE SMOOTH",
"50 311 LINE SMOOTH",
"50 294 OFFCURVE",
"64 280 OFFCURVE",
"81 280 CURVE SMOOTH",
"299 280 LINE SMOOTH",
"316 280 OFFCURVE",
"330 266 OFFCURVE",
"330 249 CURVE SMOOTH",
"330 171 LINE SMOOTH",
"330 154 OFFCURVE",
"316 140 OFFCURVE",
"299 140 CURVE SMOOTH",
"81 140 LINE SMOOTH",
"64 140 OFFCURVE",
"50 126 OFFCURVE",
"50 109 CURVE SMOOTH",
"50 31 LINE SMOOTH",
"50 14 OFFCURVE",
"64 0 OFFCURVE",
"81 0 CURVE SMOOTH"
);
}
);
width = 800;
}
);
unicode = 0073;
},
{
glyphname = v;
lastChange = "2018-03-15 02:19:48 +0000";
layers = (
{
layerId = "B5009CFD-227C-4A9D-A9B5-DAE3AEABB0A3";
paths = (
{
closed = 1;
nodes = (
"127 7 LINE SMOOTH",
"132 2 OFFCURVE",
"138 0 OFFCURVE",
"144 0 CURVE SMOOTH",
"653 0 LINE SMOOTH",
"659 0 OFFCURVE",
"665 2 OFFCURVE",
"670 7 CURVE SMOOTH",
"739 77 LINE SMOOTH",
"743 82 OFFCURVE",
"746 88 OFFCURVE",
"746 94 CURVE SMOOTH",
"746 666 LINE SMOOTH",
"746 683 OFFCURVE",
"732 697 OFFCURVE",
"715 697 CURVE SMOOTH",
"499 697 LINE SMOOTH",
"482 697 OFFCURVE",
"468 683 OFFCURVE",
"468 666 CURVE SMOOTH",
"468 589 LINE SMOOTH",
"468 572 OFFCURVE",
"454 558 OFFCURVE",
"437 558 CURVE SMOOTH",
"359 558 LINE SMOOTH",
"342 558 OFFCURVE",
"328 572 OFFCURVE",
"328 589 CURVE SMOOTH",
"328 666 LINE SMOOTH",
"328 683 OFFCURVE",
"314 697 OFFCURVE",
"297 697 CURVE SMOOTH",
"81 697 LINE SMOOTH",
"64 697 OFFCURVE",
"50 683 OFFCURVE",
"50 666 CURVE SMOOTH",
"50 94 LINE SMOOTH",
"50 88 OFFCURVE",
"52 82 OFFCURVE",
"57 77 CURVE SMOOTH"
);
}
);
width = 796;
}
);
unicode = 0076;
},
{
glyphname = z;
lastChange = "2018-03-15 02:19:59 +0000";
layers = (
{
layerId = "B5009CFD-227C-4A9D-A9B5-DAE3AEABB0A3";
paths = (
{
closed = 1;
nodes = (
"81 700 LINE SMOOTH",
"64 700 OFFCURVE",
"50 686 OFFCURVE",
"50 669 CURVE SMOOTH",
"50 574 LINE SMOOTH",
"50 568 OFFCURVE",
"52 562 OFFCURVE",
"57 557 CURVE SMOOTH",
"112 502 LINE SMOOTH",
"124 490 OFFCURVE",
"124 470 OFFCURVE",
"112 458 CURVE SMOOTH",
"57 403 LINE SMOOTH",
"52 398 OFFCURVE",
"50 392 OFFCURVE",
"50 386 CURVE SMOOTH",
"50 31 LINE SMOOTH",
"50 14 OFFCURVE",
"64 0 OFFCURVE",
"81 0 CURVE SMOOTH",
"719 0 LINE SMOOTH",
"736 0 OFFCURVE",
"750 14 OFFCURVE",
"750 31 CURVE SMOOTH",
"750 81 LINE SMOOTH",
"750 87 OFFCURVE",
"748 93 OFFCURVE",
"743 98 CURVE SMOOTH",
"687 154 LINE SMOOTH",
"675 166 OFFCURVE",
"675 184 OFFCURVE",
"687 197 CURVE SMOOTH",
"743 253 LINE SMOOTH",
"747 258 OFFCURVE",
"750 264 OFFCURVE",
"750 270 CURVE SMOOTH",
"750 669 LINE SMOOTH",
"750 686 OFFCURVE",
"736 700 OFFCURVE",
"719 700 CURVE SMOOTH"
);
}
);
width = 800;
}
);
unicode = 007A;
},
{
glyphname = zero;
lastChange = "2018-03-15 02:20:05 +0000";
layers = (
{
layerId = "B5009CFD-227C-4A9D-A9B5-DAE3AEABB0A3";
paths = (
{
closed = 1;
nodes = (
"81 700 LINE SMOOTH",
"64 700 OFFCURVE",
"50 686 OFFCURVE",
"50 669 CURVE SMOOTH",
"50 129 LINE SMOOTH",
"50 123 OFFCURVE",
"52 117 OFFCURVE",
"57 112 CURVE SMOOTH",
"162 7 LINE SMOOTH",
"167 2 OFFCURVE",
"173 0 OFFCURVE",
"179 0 CURVE SMOOTH",
"719 0 LINE SMOOTH",
"736 0 OFFCURVE",
"750 14 OFFCURVE",
"750 31 CURVE SMOOTH",
"750 571 LINE SMOOTH",
"750 577 OFFCURVE",
"748 583 OFFCURVE",
"743 588 CURVE SMOOTH",
"638 693 LINE SMOOTH",
"633 698 OFFCURVE",
"627 700 OFFCURVE",
"621 700 CURVE SMOOTH"
);
},
{
closed = 1;
nodes = (
"470 311 LINE SMOOTH",
"470 294 OFFCURVE",
"456 280 OFFCURVE",
"439 280 CURVE SMOOTH",
"361 280 LINE SMOOTH",
"344 280 OFFCURVE",
"330 294 OFFCURVE",
"330 311 CURVE SMOOTH",
"330 389 LINE SMOOTH",
"330 406 OFFCURVE",
"344 420 OFFCURVE",
"361 420 CURVE SMOOTH",
"439 420 LINE SMOOTH",
"456 420 OFFCURVE",
"470 406 OFFCURVE",
"470 389 CURVE SMOOTH"
);
}
);
width = 800;
}
);
unicode = 0030;
},
{
glyphname = one;
lastChange = "2018-03-15 02:27:12 +0000";
layers = (
{
layerId = "B5009CFD-227C-4A9D-A9B5-DAE3AEABB0A3";
paths = (
{
closed = 1;
nodes = (
"50 591 LINE SMOOTH",
"50 574 OFFCURVE",
"64 560 OFFCURVE",
"81 560 CURVE SMOOTH",
"159 560 LINE SMOOTH",
"176 560 OFFCURVE",
"190 546 OFFCURVE",
"190 529 CURVE SMOOTH",
"190 31 LINE SMOOTH",
"190 14 OFFCURVE",
"204 0 OFFCURVE",
"221 0 CURVE SMOOTH",
"719 0 LINE SMOOTH",
"736 0 OFFCURVE",
"750 14 OFFCURVE",
"750 31 CURVE SMOOTH",
"750 669 LINE SMOOTH",
"750 686 OFFCURVE",
"736 700 OFFCURVE",
"719 700 CURVE SMOOTH",
"81 700 LINE SMOOTH",
"64 700 OFFCURVE",
"50 686 OFFCURVE",
"50 669 CURVE SMOOTH"
);
}
);
width = 800;
}
);
unicode = 0031;
},
{
glyphname = three;
lastChange = "2018-03-15 02:27:12 +0000";
layers = (
{
layerId = "B5009CFD-227C-4A9D-A9B5-DAE3AEABB0A3";
paths = (
{
closed = 1;
nodes = (
"50 591 LINE SMOOTH",
"50 574 OFFCURVE",
"64 560 OFFCURVE",
"81 560 CURVE SMOOTH",
"159 560 LINE SMOOTH",
"176 560 OFFCURVE",
"190 546 OFFCURVE",
"190 529 CURVE SMOOTH",
"190 451 LINE SMOOTH",
"190 434 OFFCURVE",
"176 420 OFFCURVE",
"159 420 CURVE SMOOTH",
"81 420 LINE SMOOTH",
"64 420 OFFCURVE",
"50 406 OFFCURVE",
"50 389 CURVE SMOOTH",
"50 311 LINE SMOOTH",
"50 294 OFFCURVE",
"64 280 OFFCURVE",
"81 280 CURVE SMOOTH",
"159 280 LINE SMOOTH",
"176 280 OFFCURVE",
"190 266 OFFCURVE",
"190 249 CURVE SMOOTH",
"190 171 LINE SMOOTH",
"190 154 OFFCURVE",
"176 140 OFFCURVE",
"159 140 CURVE SMOOTH",
"81 140 LINE SMOOTH",
"64 140 OFFCURVE",
"50 126 OFFCURVE",
"50 109 CURVE SMOOTH",
"50 31 LINE SMOOTH",
"50 14 OFFCURVE",
"64 0 OFFCURVE",
"81 0 CURVE SMOOTH",
"719 0 LINE SMOOTH",
"736 0 OFFCURVE",
"750 14 OFFCURVE",
"750 31 CURVE SMOOTH",
"750 669 LINE SMOOTH",
"750 686 OFFCURVE",
"736 700 OFFCURVE",
"719 700 CURVE SMOOTH",
"81 700 LINE SMOOTH",
"64 700 OFFCURVE",
"50 686 OFFCURVE",
"50 669 CURVE SMOOTH"
);
}
);
width = 800;
}
);
unicode = 0033;
},
{
glyphname = four;
lastChange = "2018-03-15 02:20:25 +0000";
layers = (
{
layerId = "B5009CFD-227C-4A9D-A9B5-DAE3AEABB0A3";
paths = (
{
closed = 1;
nodes = (
"470 591 LINE SMOOTH",
"470 574 OFFCURVE",
"456 560 OFFCURVE",
"439 560 CURVE SMOOTH",
"361 560 LINE SMOOTH",
"344 560 OFFCURVE",
"330 574 OFFCURVE",
"330 591 CURVE SMOOTH",
"330 669 LINE SMOOTH",
"330 686 OFFCURVE",
"316 700 OFFCURVE",
"299 700 CURVE SMOOTH",
"81 700 LINE SMOOTH",
"64 700 OFFCURVE",
"50 686 OFFCURVE",
"50 669 CURVE SMOOTH",
"50 171 LINE SMOOTH",
"50 154 OFFCURVE",
"64 140 OFFCURVE",
"81 140 CURVE SMOOTH",
"159 140 LINE SMOOTH",
"176 140 OFFCURVE",
"190 126 OFFCURVE",
"190 109 CURVE SMOOTH",
"190 31 LINE SMOOTH",
"190 14 OFFCURVE",
"204 0 OFFCURVE",
"221 0 CURVE SMOOTH",
"719 0 LINE SMOOTH",
"736 0 OFFCURVE",
"750 14 OFFCURVE",
"750 31 CURVE SMOOTH",
"750 669 LINE SMOOTH",
"750 686 OFFCURVE",
"736 700 OFFCURVE",
"719 700 CURVE SMOOTH",
"501 700 LINE SMOOTH",
"484 700 OFFCURVE",
"470 686 OFFCURVE",
"470 669 CURVE SMOOTH"
);
}
);
width = 800;
}
);
unicode = 0034;
},
{
glyphname = five;
lastChange = "2018-03-15 02:20:30 +0000";
layers = (
{
layerId = "B5009CFD-227C-4A9D-A9B5-DAE3AEABB0A3";
paths = (
{
closed = 1;
nodes = (
"750 669 LINE SMOOTH",
"750 686 OFFCURVE",
"736 700 OFFCURVE",
"719 700 CURVE SMOOTH",
"81 700 LINE SMOOTH",
"64 700 OFFCURVE",
"50 686 OFFCURVE",
"50 669 CURVE SMOOTH",
"50 364 LINE",
"51 364 LINE SMOOTH",
"51 364 OFFCURVE",
"53 362 OFFCURVE",
"58 357 CURVE SMOOTH",
"93 322 LINE SMOOTH",
"110 305 OFFCURVE",
"103 280 OFFCURVE",
"81 280 CURVE SMOOTH",
"64 280 OFFCURVE",
"50 266 OFFCURVE",
"50 249 CURVE SMOOTH",
"50 31 LINE SMOOTH",
"50 14 OFFCURVE",
"64 0 OFFCURVE",
"81 0 CURVE SMOOTH",
"719 0 LINE SMOOTH",
"736 0 OFFCURVE",
"750 14 OFFCURVE",
"750 31 CURVE SMOOTH",
"750 389 LINE SMOOTH",
"750 406 OFFCURVE",
"736 420 OFFCURVE",
"719 420 CURVE SMOOTH",
"641 420 LINE SMOOTH",
"624 420 OFFCURVE",
"610 434 OFFCURVE",
"610 451 CURVE SMOOTH",
"610 529 LINE SMOOTH",
"610 546 OFFCURVE",
"624 560 OFFCURVE",
"641 560 CURVE SMOOTH",
"719 560 LINE SMOOTH",
"736 560 OFFCURVE",
"750 574 OFFCURVE",
"750 591 CURVE SMOOTH"
);
}
);
width = 800;
}
);
unicode = 0035;
},
{
glyphname = six;
lastChange = "2018-03-15 02:20:36 +0000";
layers = (
{
layerId = "B5009CFD-227C-4A9D-A9B5-DAE3AEABB0A3";
paths = (
{
closed = 1;
nodes = (
"750 669 LINE SMOOTH",
"750 686 OFFCURVE",
"736 700 OFFCURVE",
"719 700 CURVE SMOOTH",
"81 700 LINE SMOOTH",
"64 700 OFFCURVE",
"50 686 OFFCURVE",
"50 669 CURVE SMOOTH",
"50 31 LINE SMOOTH",
"50 14 OFFCURVE",
"64 0 OFFCURVE",
"81 0 CURVE SMOOTH",
"719 0 LINE SMOOTH",
"736 0 OFFCURVE",
"750 14 OFFCURVE",
"750 31 CURVE SMOOTH",
"750 389 LINE SMOOTH",
"750 406 OFFCURVE",
"736 420 OFFCURVE",
"719 420 CURVE SMOOTH",
"641 420 LINE SMOOTH",
"624 420 OFFCURVE",
"610 434 OFFCURVE",
"610 451 CURVE SMOOTH",
"610 529 LINE SMOOTH",
"610 546 OFFCURVE",
"624 560 OFFCURVE",
"641 560 CURVE SMOOTH",
"719 560 LINE SMOOTH",
"736 560 OFFCURVE",
"750 574 OFFCURVE",
"750 591 CURVE SMOOTH"
);
},
{
closed = 1;
nodes = (
"290 210 LINE SMOOTH",
"273 210 OFFCURVE",
"259 224 OFFCURVE",
"259 241 CURVE SMOOTH",
"259 319 LINE SMOOTH",
"259 336 OFFCURVE",
"273 350 OFFCURVE",
"290 350 CURVE SMOOTH",
"368 350 LINE SMOOTH",
"385 350 OFFCURVE",
"399 336 OFFCURVE",
"399 319 CURVE SMOOTH",
"399 241 LINE SMOOTH",
"399 224 OFFCURVE",
"385 210 OFFCURVE",
"368 210 CURVE SMOOTH"
);
}
);
width = 800;
}
);
unicode = 0036;
},
{
glyphname = seven;
lastChange = "2018-03-15 02:27:12 +0000";
layers = (
{
layerId = "B5009CFD-227C-4A9D-A9B5-DAE3AEABB0A3";
paths = (
{
closed = 1;
nodes = (
"50 451 LINE SMOOTH",
"50 434 OFFCURVE",
"64 420 OFFCURVE",
"81 420 CURVE SMOOTH",
"159 420 LINE SMOOTH",
"176 420 OFFCURVE",
"190 406 OFFCURVE",
"190 389 CURVE SMOOTH",
"190 31 LINE SMOOTH",
"190 14 OFFCURVE",
"204 0 OFFCURVE",
"221 0 CURVE SMOOTH",
"719 0 LINE SMOOTH",
"736 0 OFFCURVE",
"750 14 OFFCURVE",
"750 31 CURVE SMOOTH",
"750 669 LINE SMOOTH",
"750 686 OFFCURVE",
"736 700 OFFCURVE",
"719 700 CURVE SMOOTH",
"81 700 LINE SMOOTH",
"64 700 OFFCURVE",
"50 686 OFFCURVE",
"50 669 CURVE SMOOTH"
);
}
);
width = 800;
}
);
unicode = 0037;
},
{
glyphname = eight;
lastChange = "2018-03-15 02:20:45 +0000";
layers = (
{
layerId = "B5009CFD-227C-4A9D-A9B5-DAE3AEABB0A3";
paths = (
{
closed = 1;
nodes = (
"750 669 LINE SMOOTH",
"750 686 OFFCURVE",
"736 700 OFFCURVE",
"719 700 CURVE SMOOTH",
"81 700 LINE SMOOTH",
"64 700 OFFCURVE",
"50 686 OFFCURVE",
"50 669 CURVE SMOOTH",
"50 31 LINE SMOOTH",
"50 14 OFFCURVE",
"64 0 OFFCURVE",
"81 0 CURVE SMOOTH",
"719 0 LINE SMOOTH",
"736 0 OFFCURVE",
"750 14 OFFCURVE",
"750 31 CURVE SMOOTH"
);
},
{
closed = 1;
nodes = (
"361 140 LINE SMOOTH",
"344 140 OFFCURVE",
"330 154 OFFCURVE",
"330 171 CURVE SMOOTH",
"330 249 LINE SMOOTH",
"330 266 OFFCURVE",
"344 280 OFFCURVE",
"361 280 CURVE SMOOTH",
"439 280 LINE SMOOTH",
"456 280 OFFCURVE",
"470 266 OFFCURVE",
"470 249 CURVE SMOOTH",
"470 171 LINE SMOOTH",
"470 154 OFFCURVE",
"456 140 OFFCURVE",
"439 140 CURVE SMOOTH"
);
},
{
closed = 1;
nodes = (
"361 420 LINE SMOOTH",
"344 420 OFFCURVE",
"330 434 OFFCURVE",
"330 451 CURVE SMOOTH",
"330 529 LINE SMOOTH",
"330 546 OFFCURVE",
"344 560 OFFCURVE",
"361 560 CURVE SMOOTH",
"439 560 LINE SMOOTH",
"456 560 OFFCURVE",
"470 546 OFFCURVE",
"470 529 CURVE SMOOTH",
"470 451 LINE SMOOTH",
"470 434 OFFCURVE",
"456 420 OFFCURVE",
"439 420 CURVE SMOOTH"
);
}
);
width = 800;
}
);
unicode = 0038;
},
{
glyphname = asterisk;
lastChange = "2018-03-15 02:20:54 +0000";
layers = (
{
layerId = "B5009CFD-227C-4A9D-A9B5-DAE3AEABB0A3";
paths = (
{
closed = 1;
nodes = (
"247 481 LINE SMOOTH",
"235 469 OFFCURVE",
"215 469 OFFCURVE",
"203 481 CURVE SMOOTH",
"156 528 LINE SMOOTH",
"151 533 OFFCURVE",
"145 535 OFFCURVE",
"139 535 CURVE SMOOTH",
"81 535 LINE SMOOTH",
"64 535 OFFCURVE",
"50 521 OFFCURVE",
"50 504 CURVE SMOOTH",
"50 446 LINE SMOOTH",
"50 440 OFFCURVE",
"52 434 OFFCURVE",
"57 429 CURVE SMOOTH",
"104 382 LINE SMOOTH",
"116 370 OFFCURVE",
"116 350 OFFCURVE",
"104 338 CURVE SMOOTH",
"57 291 LINE SMOOTH",
"52 286 OFFCURVE",
"50 280 OFFCURVE",
"50 274 CURVE SMOOTH",
"50 216 LINE SMOOTH",
"50 199 OFFCURVE",
"64 185 OFFCURVE",
"81 185 CURVE SMOOTH",
"139 185 LINE SMOOTH",
"145 185 OFFCURVE",
"151 187 OFFCURVE",
"156 192 CURVE SMOOTH",
"203 239 LINE SMOOTH",
"215 251 OFFCURVE",
"235 251 OFFCURVE",
"247 239 CURVE SMOOTH",
"294 192 LINE SMOOTH",
"299 187 OFFCURVE",
"305 185 OFFCURVE",
"311 185 CURVE SMOOTH",
"369 185 LINE SMOOTH",
"386 185 OFFCURVE",
"400 199 OFFCURVE",
"400 216 CURVE SMOOTH",
"400 274 LINE SMOOTH",
"400 280 OFFCURVE",
"398 286 OFFCURVE",
"393 291 CURVE SMOOTH",
"346 338 LINE SMOOTH",
"334 350 OFFCURVE",
"334 370 OFFCURVE",
"346 382 CURVE SMOOTH",
"393 429 LINE SMOOTH",
"398 434 OFFCURVE",
"400 440 OFFCURVE",
"400 446 CURVE SMOOTH",
"400 504 LINE SMOOTH",
"400 521 OFFCURVE",
"386 535 OFFCURVE",
"369 535 CURVE SMOOTH",
"311 535 LINE SMOOTH",
"305 535 OFFCURVE",
"299 533 OFFCURVE",
"294 528 CURVE SMOOTH"
);
}
);
width = 450;
}
);
unicode = 002A;
},
{
glyphname = backslash;
lastChange = "2018-03-15 02:20:59 +0000";
layers = (
{
layerId = "B5009CFD-227C-4A9D-A9B5-DAE3AEABB0A3";
paths = (
{
closed = 1;
nodes = (
"198 690 LINE SMOOTH",
"193 697 OFFCURVE",
"186 700 OFFCURVE",
"178 700 CURVE SMOOTH",
"120 700 LINE SMOOTH",
"89 700 OFFCURVE",
"80 663 OFFCURVE",
"103 634 CURVE SMOOTH",
"602 10 LINE SMOOTH",
"607 3 OFFCURVE",
"614 0 OFFCURVE",
"622 0 CURVE SMOOTH",
"680 0 LINE SMOOTH",
"710 0 OFFCURVE",
"719 37 OFFCURVE",
"696 66 CURVE SMOOTH"
);
}
);
width = 799;
}
);
unicode = 005C;
},
{
glyphname = colon;
lastChange = "2018-03-15 02:25:21 +0000";
layers = (
{
layerId = "B5009CFD-227C-4A9D-A9B5-DAE3AEABB0A3";
paths = (
{
closed = 1;
nodes = (
"81 140 LINE SMOOTH",
"64 140 OFFCURVE",
"50 126 OFFCURVE",
"50 109 CURVE SMOOTH",
"50 31 LINE SMOOTH",
"50 14 OFFCURVE",
"64 0 OFFCURVE",
"81 0 CURVE SMOOTH",
"159 0 LINE SMOOTH",
"176 0 OFFCURVE",
"190 14 OFFCURVE",
"190 31 CURVE SMOOTH",
"190 109 LINE SMOOTH",
"190 126 OFFCURVE",
"176 140 OFFCURVE",
"159 140 CURVE SMOOTH"
);
},
{
closed = 1;
nodes = (
"81 420 LINE SMOOTH",
"64 420 OFFCURVE",
"50 406 OFFCURVE",
"50 389 CURVE SMOOTH",
"50 311 LINE SMOOTH",
"50 294 OFFCURVE",
"64 280 OFFCURVE",
"81 280 CURVE SMOOTH",
"159 280 LINE SMOOTH",
"176 280 OFFCURVE",
"190 294 OFFCURVE",
"190 311 CURVE SMOOTH",
"190 389 LINE SMOOTH",
"190 406 OFFCURVE",
"176 420 OFFCURVE",
"159 420 CURVE SMOOTH"
);
}
);
width = 240;
}
);
unicode = 003A;
},
{
glyphname = comma;
lastChange = "2018-03-15 02:25:29 +0000";
layers = (
{
layerId = "B5009CFD-227C-4A9D-A9B5-DAE3AEABB0A3";
paths = (
{
closed = 1;
nodes = (
"150 -138 LINE SMOOTH",
"156 -138 OFFCURVE",
"160 -134 OFFCURVE",
"160 -128 CURVE SMOOTH",
"160 -34 LINE SMOOTH",
"160 -20 OFFCURVE",
"146 -14 OFFCURVE",
"136 -24 CURVE SMOOTH",
"45 -113 LINE SMOOTH",
"35 -123 OFFCURVE",
"41 -138 OFFCURVE",
"55 -138 CURVE SMOOTH"
);
}
);
width = 200;
}
);
unicode = 002C;
},
{
glyphname = exclam;
lastChange = "2018-03-15 02:21:59 +0000";
layers = (
{
layerId = "B5009CFD-227C-4A9D-A9B5-DAE3AEABB0A3";
paths = (
{
closed = 1;
nodes = (
"81 140 LINE SMOOTH",
"64 140 OFFCURVE",
"50 126 OFFCURVE",
"50 109 CURVE SMOOTH",
"50 31 LINE SMOOTH",
"50 14 OFFCURVE",
"64 0 OFFCURVE",
"81 0 CURVE SMOOTH",
"159 0 LINE SMOOTH",
"176 0 OFFCURVE",
"190 14 OFFCURVE",
"190 31 CURVE SMOOTH",
"190 109 LINE SMOOTH",
"190 126 OFFCURVE",
"176 140 OFFCURVE",
"159 140 CURVE SMOOTH"
);
},
{
closed = 1;
nodes = (
"50 311 LINE SMOOTH",
"50 294 OFFCURVE",
"64 280 OFFCURVE",
"81 280 CURVE SMOOTH",
"159 280 LINE SMOOTH",
"176 280 OFFCURVE",
"190 294 OFFCURVE",
"190 311 CURVE SMOOTH",
"190 669 LINE SMOOTH",
"190 686 OFFCURVE",
"176 700 OFFCURVE",
"159 700 CURVE SMOOTH",
"81 700 LINE SMOOTH",
"64 700 OFFCURVE",
"50 686 OFFCURVE",
"50 669 CURVE SMOOTH"
);
}
);
width = 240;
}
);
unicode = 0021;
},
{
glyphname = numbersign;
lastChange = "2018-03-15 02:22:06 +0000";
layers = (
{
layerId = "B5009CFD-227C-4A9D-A9B5-DAE3AEABB0A3";
paths = (
{
closed = 1;
nodes = (
"750 669 LINE SMOOTH",
"750 686 OFFCURVE",
"736 700 OFFCURVE",
"719 700 CURVE SMOOTH",
"501 700 LINE SMOOTH",
"484 700 OFFCURVE",
"470 686 OFFCURVE",
"470 669 CURVE SMOOTH",
"470 591 LINE SMOOTH",
"470 574 OFFCURVE",
"456 560 OFFCURVE",
"439 560 CURVE SMOOTH",
"361 560 LINE SMOOTH",
"344 560 OFFCURVE",
"330 574 OFFCURVE",
"330 591 CURVE SMOOTH",
"330 669 LINE SMOOTH",
"330 686 OFFCURVE",
"316 700 OFFCURVE",
"299 700 CURVE SMOOTH",
"81 700 LINE SMOOTH",
"64 700 OFFCURVE",
"50 686 OFFCURVE",
"50 669 CURVE SMOOTH",
"50 591 LINE SMOOTH",
"50 574 OFFCURVE",
"64 560 OFFCURVE",
"81 560 CURVE SMOOTH",
"159 560 LINE SMOOTH",
"176 560 OFFCURVE",
"190 546 OFFCURVE",
"190 529 CURVE SMOOTH",
"190 182 LINE SMOOTH",
"190 165 OFFCURVE",
"176 151 OFFCURVE",
"159 151 CURVE SMOOTH",
"81 151 LINE SMOOTH",
"64 151 OFFCURVE",
"50 137 OFFCURVE",
"50 120 CURVE SMOOTH",
"50 31 LINE SMOOTH",
"50 14 OFFCURVE",
"64 0 OFFCURVE",
"81 0 CURVE SMOOTH",
"299 0 LINE SMOOTH",
"316 0 OFFCURVE",
"330 14 OFFCURVE",
"330 31 CURVE SMOOTH",
"330 109 LINE SMOOTH",
"330 126 OFFCURVE",
"344 140 OFFCURVE",
"361 140 CURVE SMOOTH",
"439 140 LINE SMOOTH",
"456 140 OFFCURVE",
"470 126 OFFCURVE",
"470 109 CURVE SMOOTH",
"470 31 LINE SMOOTH",
"470 14 OFFCURVE",
"484 0 OFFCURVE",
"501 0 CURVE SMOOTH",
"719 0 LINE SMOOTH",
"736 0 OFFCURVE",
"750 14 OFFCURVE",
"750 31 CURVE SMOOTH",
"750 109 LINE SMOOTH",
"750 126 OFFCURVE",
"736 140 OFFCURVE",
"719 140 CURVE SMOOTH",
"641 140 LINE SMOOTH",
"624 140 OFFCURVE",
"610 154 OFFCURVE",
"610 171 CURVE SMOOTH",
"610 529 LINE SMOOTH",
"610 546 OFFCURVE",
"624 560 OFFCURVE",
"641 560 CURVE SMOOTH",
"719 560 LINE SMOOTH",
"736 560 OFFCURVE",
"750 574 OFFCURVE",
"750 591 CURVE SMOOTH"
);
},
{
closed = 1;
nodes = (
"361 280 LINE SMOOTH",
"344 280 OFFCURVE",
"330 294 OFFCURVE",
"330 311 CURVE SMOOTH",
"330 389 LINE SMOOTH",
"330 406 OFFCURVE",
"344 420 OFFCURVE",
"361 420 CURVE SMOOTH",
"439 420 LINE SMOOTH",
"456 420 OFFCURVE",
"470 406 OFFCURVE",
"470 389 CURVE SMOOTH",
"470 311 LINE SMOOTH",
"470 294 OFFCURVE",
"456 280 OFFCURVE",
"439 280 CURVE SMOOTH"
);
}
);
width = 800;
}
);
unicode = 0023;
},
{
glyphname = period;
lastChange = "2018-03-15 02:22:12 +0000";
layers = (
{
layerId = "B5009CFD-227C-4A9D-A9B5-DAE3AEABB0A3";
paths = (
{
closed = 1;
nodes = (
"81 140 LINE SMOOTH",
"64 140 OFFCURVE",
"50 126 OFFCURVE",
"50 109 CURVE SMOOTH",
"50 31 LINE SMOOTH",
"50 14 OFFCURVE",
"64 0 OFFCURVE",
"81 0 CURVE SMOOTH",
"159 0 LINE SMOOTH",
"176 0 OFFCURVE",
"190 14 OFFCURVE",
"190 31 CURVE SMOOTH",
"190 109 LINE SMOOTH",
"190 126 OFFCURVE",
"176 140 OFFCURVE",
"159 140 CURVE SMOOTH"
);
}
);
width = 240;
}
);
unicode = 002E;
},
{
glyphname = question;
lastChange = "2018-03-15 02:22:17 +0000";
layers = (
{
layerId = "B5009CFD-227C-4A9D-A9B5-DAE3AEABB0A3";
paths = (
{
closed = 1;
nodes = (
"50 435 LINE SMOOTH",
"50 418 OFFCURVE",
"64 404 OFFCURVE",
"81 404 CURVE SMOOTH",
"159 404 LINE SMOOTH",
"176 404 OFFCURVE",
"190 418 OFFCURVE",
"190 435 CURVE SMOOTH",
"190 513 LINE SMOOTH",
"190 530 OFFCURVE",
"204 544 OFFCURVE",
"221 544 CURVE SMOOTH",
"299 544 LINE SMOOTH",
"316 544 OFFCURVE",
"330 530 OFFCURVE",
"330 513 CURVE SMOOTH",
"330 295 LINE SMOOTH",
"330 278 OFFCURVE",
"316 264 OFFCURVE",
"299 264 CURVE SMOOTH",
"81 264 LINE SMOOTH",
"64 264 OFFCURVE",
"50 250 OFFCURVE",
"50 233 CURVE SMOOTH",
"50 31 LINE SMOOTH",
"50 14 OFFCURVE",
"64 0 OFFCURVE",
"81 0 CURVE SMOOTH",
"299 0 LINE SMOOTH",
"316 0 OFFCURVE",
"330 14 OFFCURVE",
"330 31 CURVE SMOOTH",
"330 106 LINE SMOOTH",
"330 123 OFFCURVE",
"344 137 OFFCURVE",
"361 137 CURVE SMOOTH",
"439 137 LINE SMOOTH",
"456 137 OFFCURVE",
"470 123 OFFCURVE",
"470 106 CURVE SMOOTH",
"470 31 LINE SMOOTH",
"470 14 OFFCURVE",
"484 0 OFFCURVE",
"501 0 CURVE SMOOTH",
"719 0 LINE SMOOTH",
"736 0 OFFCURVE",
"750 14 OFFCURVE",
"750 31 CURVE SMOOTH",
"750 669 LINE SMOOTH",
"750 686 OFFCURVE",
"736 700 OFFCURVE",
"719 700 CURVE SMOOTH",
"81 700 LINE SMOOTH",
"64 700 OFFCURVE",
"50 686 OFFCURVE",
"50 669 CURVE SMOOTH"
);
}
);
width = 800;
}
);
unicode = 003F;
},
{
glyphname = quotedbl;
lastChange = "2018-03-15 02:22:27 +0000";
layers = (
{
layerId = "B5009CFD-227C-4A9D-A9B5-DAE3AEABB0A3";
paths = (
{
closed = 1;
nodes = (
"160 562 LINE SMOOTH",
"166 562 OFFCURVE",
"170 566 OFFCURVE",
"170 572 CURVE SMOOTH",
"170 666 LINE SMOOTH",
"170 680 OFFCURVE",
"156 686 OFFCURVE",
"146 676 CURVE SMOOTH",
"55 587 LINE SMOOTH",
"45 577 OFFCURVE",
"51 562 OFFCURVE",
"65 562 CURVE SMOOTH"
);
},
{
closed = 1;
nodes = (
"300 562 LINE SMOOTH",
"306 562 OFFCURVE",
"310 566 OFFCURVE",
"310 572 CURVE SMOOTH",
"310 666 LINE SMOOTH",
"310 680 OFFCURVE",
"296 686 OFFCURVE",
"286 676 CURVE SMOOTH",
"195 587 LINE SMOOTH",
"185 577 OFFCURVE",
"191 562 OFFCURVE",
"205 562 CURVE SMOOTH"
);
}
);
width = 350;
}
);
unicode = 0022;
},
{
glyphname = quotesingle;
lastChange = "2018-03-15 02:25:44 +0000";
layers = (
{
layerId = "B5009CFD-227C-4A9D-A9B5-DAE3AEABB0A3";
paths = (
{
closed = 1;
nodes = (
"160 562 LINE SMOOTH",
"166 562 OFFCURVE",
"170 566 OFFCURVE",
"170 572 CURVE SMOOTH",
"170 666 LINE SMOOTH",
"170 680 OFFCURVE",
"156 686 OFFCURVE",
"146 676 CURVE SMOOTH",
"55 587 LINE SMOOTH",
"45 577 OFFCURVE",
"51 562 OFFCURVE",
"65 562 CURVE SMOOTH"
);
}
);
width = 210;
}
);
unicode = 0027;
},
{
glyphname = semicolon;
lastChange = "2018-03-15 02:25:50 +0000";
layers = (
{
layerId = "B5009CFD-227C-4A9D-A9B5-DAE3AEABB0A3";
paths = (
{
closed = 1;
nodes = (
"81 200 LINE SMOOTH",
"64 200 OFFCURVE",
"50 186 OFFCURVE",
"50 169 CURVE SMOOTH",
"50 91 LINE SMOOTH",
"50 74 OFFCURVE",
"64 60 OFFCURVE",
"81 60 CURVE SMOOTH",
"159 60 LINE SMOOTH",
"176 60 OFFCURVE",
"190 74 OFFCURVE",
"190 91 CURVE SMOOTH",
"190 169 LINE SMOOTH",
"190 186 OFFCURVE",
"176 200 OFFCURVE",
"159 200 CURVE SMOOTH"
);
},
{
closed = 1;
nodes = (
"179 -140 LINE SMOOTH",
"185 -140 OFFCURVE",
"189 -136 OFFCURVE",
"189 -130 CURVE SMOOTH",
"189 -36 LINE SMOOTH",
"189 -22 OFFCURVE",
"175 -16 OFFCURVE",
"165 -26 CURVE SMOOTH",
"74 -115 LINE SMOOTH",
"64 -125 OFFCURVE",
"70 -140 OFFCURVE",
"84 -140 CURVE SMOOTH"
);
}
);
width = 240;
}
);
unicode = 003B;
},
{
glyphname = underscore;
lastChange = "2018-03-15 02:22:54 +0000";
layers = (
{
layerId = "B5009CFD-227C-4A9D-A9B5-DAE3AEABB0A3";
paths = (
{
closed = 1;
nodes = (
"719 -140 LINE SMOOTH",
"736 -140 OFFCURVE",
"750 -126 OFFCURVE",
"750 -109 CURVE SMOOTH",
"750 -31 LINE SMOOTH",
"750 -14 OFFCURVE",
"736 0 OFFCURVE",
"719 0 CURVE SMOOTH",
"81 0 LINE SMOOTH",
"64 0 OFFCURVE",
"50 -14 OFFCURVE",
"50 -31 CURVE SMOOTH",
"50 -109 LINE SMOOTH",
"50 -126 OFFCURVE",
"64 -140 OFFCURVE",
"81 -140 CURVE SMOOTH"
);
}
);
width = 800;
}
);
unicode = 005F;
},
{
glyphname = braceleft;
lastChange = "2018-03-15 02:26:14 +0000";
layers = (
{
layerId = "B5009CFD-227C-4A9D-A9B5-DAE3AEABB0A3";
paths = (
{
closed = 1;
nodes = (
"188 210 LINE",
"188 -109 LINE SMOOTH",
"188 -126 OFFCURVE",
"202 -140 OFFCURVE",
"219 -140 CURVE SMOOTH",
"438 -140 LINE SMOOTH",
"455 -140 OFFCURVE",
"469 -126 OFFCURVE",
"469 -109 CURVE SMOOTH",
"469 -32 LINE SMOOTH",
"469 -15 OFFCURVE",
"455 -1 OFFCURVE",
"438 -1 CURVE SMOOTH",
"360 -1 LINE SMOOTH",
"343 -1 OFFCURVE",
"329 13 OFFCURVE",
"329 30 CURVE SMOOTH",
"329 529 LINE SMOOTH",
"329 546 OFFCURVE",
"343 560 OFFCURVE",
"360 560 CURVE SMOOTH",
"438 560 LINE SMOOTH",
"455 560 OFFCURVE",
"469 574 OFFCURVE",
"469 591 CURVE SMOOTH",
"469 669 LINE SMOOTH",
"469 686 OFFCURVE",
"455 700 OFFCURVE",
"438 700 CURVE SMOOTH",
"220 700 LINE SMOOTH",
"203 700 OFFCURVE",
"189 686 OFFCURVE",
"189 669 CURVE SMOOTH",
"189 350 LINE",
"81 350 LINE SMOOTH",
"64 350 OFFCURVE",
"50 336 OFFCURVE",
"50 319 CURVE SMOOTH",
"50 241 LINE SMOOTH",
"50 224 OFFCURVE",
"64 210 OFFCURVE",
"81 210 CURVE SMOOTH"
);
}
);
width = 509;
}
);
unicode = 007B;
},
{
glyphname = bracketleft;
lastChange = "2018-03-15 02:23:21 +0000";
layers = (
{
layerId = "B5009CFD-227C-4A9D-A9B5-DAE3AEABB0A3";
paths = (
{
closed = 1;
nodes = (
"300 -140 LINE SMOOTH",
"317 -140 OFFCURVE",
"331 -126 OFFCURVE",
"331 -109 CURVE SMOOTH",
"331 -32 LINE SMOOTH",
"331 -15 OFFCURVE",
"317 -1 OFFCURVE",
"300 -1 CURVE SMOOTH",
"222 -1 LINE SMOOTH",
"205 -1 OFFCURVE",
"191 13 OFFCURVE",
"191 30 CURVE SMOOTH",
"191 529 LINE SMOOTH",
"191 546 OFFCURVE",
"205 560 OFFCURVE",
"222 560 CURVE SMOOTH",
"300 560 LINE SMOOTH",
"317 560 OFFCURVE",
"331 574 OFFCURVE",
"331 591 CURVE SMOOTH",
"331 669 LINE SMOOTH",
"331 686 OFFCURVE",
"317 700 OFFCURVE",
"300 700 CURVE SMOOTH",
"82 700 LINE SMOOTH",
"65 700 OFFCURVE",
"51 686 OFFCURVE",
"51 669 CURVE SMOOTH",
"50 -109 LINE SMOOTH",
"50 -126 OFFCURVE",
"64 -140 OFFCURVE",
"81 -140 CURVE SMOOTH"
);
}
);
width = 371;
}
);
unicode = 005B;
},
{
glyphname = parenleft;
lastChange = "2018-03-15 02:23:49 +0000";
layers = (
{
layerId = "B5009CFD-227C-4A9D-A9B5-DAE3AEABB0A3";
paths = (
{
closed = 1;
nodes = (
"189 531 LINE SMOOTH",
"189 548 OFFCURVE",
"203 562 OFFCURVE",
"220 562 CURVE SMOOTH",
"297 562 LINE SMOOTH",
"314 562 OFFCURVE",
"328 576 OFFCURVE",
"328 593 CURVE SMOOTH",
"328 669 LINE SMOOTH",
"328 686 OFFCURVE",
"314 700 OFFCURVE",
"297 700 CURVE SMOOTH",
"130 700 LINE SMOOTH",
"124 700 OFFCURVE",
"118 698 OFFCURVE",
"113 693 CURVE SMOOTH",
"89 669 LINE",
"58 638 LINE SMOOTH",
"53 633 OFFCURVE",
"50 627 OFFCURVE",
"50 620 CURVE SMOOTH",
"50 -120 LINE SMOOTH",
"50 -127 OFFCURVE",
"53 -133 OFFCURVE",
"58 -138 CURVE SMOOTH",
"82 -162 LINE",
"113 -193 LINE SMOOTH",
"118 -198 OFFCURVE",
"124 -200 OFFCURVE",
"130 -200 CURVE SMOOTH",
"295 -200 LINE SMOOTH",
"312 -200 OFFCURVE",
"326 -186 OFFCURVE",
"326 -169 CURVE SMOOTH",
"326 -93 LINE SMOOTH",
"326 -76 OFFCURVE",
"312 -62 OFFCURVE",
"295 -62 CURVE SMOOTH",
"220 -62 LINE SMOOTH",
"203 -62 OFFCURVE",
"189 -48 OFFCURVE",
"189 -31 CURVE SMOOTH"
);
}
);
width = 368;
}
);
unicode = 0028;
},
{
glyphname = dollar;
lastChange = "2018-03-15 02:24:05 +0000";
layers = (
{
layerId = "B5009CFD-227C-4A9D-A9B5-DAE3AEABB0A3";
paths = (
{
closed = 1;
nodes = (
"743 554 LINE SMOOTH",
"748 559 OFFCURVE",
"750 565 OFFCURVE",
"750 571 CURVE SMOOTH",
"750 669 LINE SMOOTH",
"750 686 OFFCURVE",
"736 700 OFFCURVE",
"719 700 CURVE SMOOTH",
"501 700 LINE SMOOTH",
"484 700 OFFCURVE",
"470 714 OFFCURVE",
"470 731 CURVE SMOOTH",
"470 739 LINE SMOOTH",
"470 756 OFFCURVE",
"456 770 OFFCURVE",
"439 770 CURVE SMOOTH",
"361 770 LINE SMOOTH",
"344 770 OFFCURVE",
"330 756 OFFCURVE",
"330 739 CURVE SMOOTH",
"330 731 LINE SMOOTH",
"330 714 OFFCURVE",
"316 700 OFFCURVE",
"299 700 CURVE SMOOTH",
"81 700 LINE SMOOTH",
"64 700 OFFCURVE",
"50 686 OFFCURVE",
"50 669 CURVE SMOOTH",
"50 319 LINE SMOOTH",
"50 313 OFFCURVE",
"52 307 OFFCURVE",
"57 302 CURVE SMOOTH",
"112 247 LINE SMOOTH",
"124 235 OFFCURVE",
"124 215 OFFCURVE",
"112 203 CURVE SMOOTH",
"57 148 LINE SMOOTH",
"52 143 OFFCURVE",
"50 137 OFFCURVE",
"50 131 CURVE SMOOTH",
"50 31 LINE SMOOTH",
"50 14 OFFCURVE",
"64 0 OFFCURVE",
"81 0 CURVE SMOOTH",
"299 0 LINE SMOOTH",
"316 0 OFFCURVE",
"330 -14 OFFCURVE",
"330 -31 CURVE SMOOTH",
"330 -39 LINE SMOOTH",
"330 -56 OFFCURVE",
"344 -70 OFFCURVE",
"361 -70 CURVE SMOOTH",
"439 -70 LINE SMOOTH",
"456 -70 OFFCURVE",
"470 -56 OFFCURVE",
"470 -39 CURVE SMOOTH",
"470 -31 LINE SMOOTH",
"470 -14 OFFCURVE",
"484 0 OFFCURVE",
"501 0 CURVE SMOOTH",
"719 0 LINE SMOOTH",
"736 0 OFFCURVE",
"750 14 OFFCURVE",
"750 31 CURVE SMOOTH",
"750 383 LINE SMOOTH",
"750 389 OFFCURVE",
"748 395 OFFCURVE",
"743 400 CURVE SMOOTH",
"688 455 LINE SMOOTH",
"676 467 OFFCURVE",
"676 487 OFFCURVE",
"688 499 CURVE SMOOTH"
);
}
);
width = 800;
}
);
unicode = 0024;
},
{
glyphname = plus;
lastChange = "2018-03-15 02:24:11 +0000";
layers = (
{
layerId = "B5009CFD-227C-4A9D-A9B5-DAE3AEABB0A3";
paths = (
{
closed = 1;
nodes = (
"329 468 LINE SMOOTH",
"329 485 OFFCURVE",
"315 499 OFFCURVE",
"298 499 CURVE SMOOTH",
"220 499 LINE SMOOTH",
"203 499 OFFCURVE",
"189 485 OFFCURVE",
"189 468 CURVE SMOOTH",
"189 391 LINE SMOOTH",
"189 374 OFFCURVE",
"175 360 OFFCURVE",
"158 360 CURVE SMOOTH",
"81 360 LINE SMOOTH",
"64 360 OFFCURVE",
"50 346 OFFCURVE",
"50 329 CURVE SMOOTH",
"50 251 LINE SMOOTH",
"50 234 OFFCURVE",
"64 220 OFFCURVE",
"81 220 CURVE SMOOTH",
"158 220 LINE SMOOTH",
"175 220 OFFCURVE",
"189 206 OFFCURVE",
"189 189 CURVE SMOOTH",
"189 112 LINE SMOOTH",
"189 95 OFFCURVE",
"203 81 OFFCURVE",
"220 81 CURVE SMOOTH",
"298 81 LINE SMOOTH",
"315 81 OFFCURVE",
"329 95 OFFCURVE",
"329 112 CURVE SMOOTH",
"329 189 LINE SMOOTH",
"329 206 OFFCURVE",
"343 220 OFFCURVE",
"360 220 CURVE SMOOTH",
"437 220 LINE SMOOTH",
"454 220 OFFCURVE",
"468 234 OFFCURVE",
"468 251 CURVE SMOOTH",
"468 329 LINE SMOOTH",
"468 346 OFFCURVE",
"454 360 OFFCURVE",
"437 360 CURVE SMOOTH",
"360 360 LINE SMOOTH",
"343 360 OFFCURVE",
"329 374 OFFCURVE",
"329 391 CURVE SMOOTH"
);
}
);
width = 518;
}
);
unicode = 002B;
},
{
glyphname = minus;
lastChange = "2018-03-15 02:24:15 +0000";
layers = (
{
layerId = "B5009CFD-227C-4A9D-A9B5-DAE3AEABB0A3";
paths = (
{
closed = 1;
nodes = (
"81 359 LINE SMOOTH",
"64 359 OFFCURVE",
"50 345 OFFCURVE",
"50 328 CURVE SMOOTH",
"50 250 LINE SMOOTH",
"50 233 OFFCURVE",
"64 219 OFFCURVE",
"81 219 CURVE SMOOTH",
"437 219 LINE SMOOTH",
"454 219 OFFCURVE",
"468 233 OFFCURVE",
"468 250 CURVE SMOOTH",
"468 328 LINE SMOOTH",
"468 345 OFFCURVE",
"454 359 OFFCURVE",
"437 359 CURVE SMOOTH"
);
}
);
width = 518;
}
);
unicode = 2212;
},
{
glyphname = multiply;
lastChange = "2018-03-15 02:24:19 +0000";
layers = (
{
layerId = "B5009CFD-227C-4A9D-A9B5-DAE3AEABB0A3";
paths = (
{
closed = 1;
nodes = (
"391 367 LINE SMOOTH",
"396 372 OFFCURVE",
"398 378 OFFCURVE",
"398 384 CURVE SMOOTH",
"398 434 LINE SMOOTH",
"398 451 OFFCURVE",
"384 465 OFFCURVE",
"367 465 CURVE SMOOTH",
"323 465 LINE SMOOTH",
"317 465 OFFCURVE",
"311 463 OFFCURVE",
"306 458 CURVE SMOOTH",
"252 403 LINE SMOOTH",
"240 391 OFFCURVE",
"220 391 OFFCURVE",
"208 403 CURVE SMOOTH",
"153 458 LINE SMOOTH",
"148 463 OFFCURVE",
"142 465 OFFCURVE",
"136 465 CURVE SMOOTH",
"81 465 LINE SMOOTH",
"64 465 OFFCURVE",
"50 451 OFFCURVE",
"50 434 CURVE SMOOTH",
"50 384 LINE SMOOTH",
"50 378 OFFCURVE",
"53 372 OFFCURVE",
"57 367 CURVE SMOOTH",
"112 311 LINE SMOOTH",
"124 299 OFFCURVE",
"124 281 OFFCURVE",
"112 269 CURVE SMOOTH",
"57 213 LINE SMOOTH",
"53 208 OFFCURVE",
"50 202 OFFCURVE",
"50 196 CURVE SMOOTH",
"50 147 LINE SMOOTH",
"50 130 OFFCURVE",
"64 116 OFFCURVE",
"81 116 CURVE SMOOTH",
"136 116 LINE SMOOTH",
"142 116 OFFCURVE",
"148 118 OFFCURVE",
"153 123 CURVE SMOOTH",
"208 178 LINE SMOOTH",
"220 190 OFFCURVE",
"240 190 OFFCURVE",
"252 178 CURVE SMOOTH",
"306 123 LINE SMOOTH",
"311 118 OFFCURVE",
"317 116 OFFCURVE",
"323 116 CURVE SMOOTH",
"367 116 LINE SMOOTH",
"384 116 OFFCURVE",
"398 130 OFFCURVE",
"398 147 CURVE SMOOTH",
"398 196 LINE SMOOTH",
"398 202 OFFCURVE",
"396 208 OFFCURVE",
"391 213 CURVE SMOOTH",
"336 268 LINE SMOOTH",
"324 280 OFFCURVE",
"324 300 OFFCURVE",
"336 312 CURVE SMOOTH"
);
}
);
width = 448;
}
);
unicode = 00D7;
},
{
glyphname = divide;
lastChange = "2018-03-15 02:24:24 +0000";
layers = (
{
components = (
{
name = period;
transform = "{1, 0, 0, 1, 137, 433}";
},
{
name = period;
transform = "{1, 0, 0, 1, 137, 0}";
}
);
layerId = "B5009CFD-227C-4A9D-A9B5-DAE3AEABB0A3";
paths = (
{
closed = 1;
nodes = (
"81 359 LINE SMOOTH",
"64 359 OFFCURVE",
"50 345 OFFCURVE",
"50 328 CURVE SMOOTH",
"50 250 LINE SMOOTH",
"50 233 OFFCURVE",
"64 219 OFFCURVE",
"81 219 CURVE SMOOTH",
"437 219 LINE SMOOTH",
"454 219 OFFCURVE",
"468 233 OFFCURVE",
"468 250 CURVE SMOOTH",
"468 328 LINE SMOOTH",
"468 345 OFFCURVE",
"454 359 OFFCURVE",
"437 359 CURVE SMOOTH"
);
}
);
width = 518;
}
);
unicode = 00F7;
},
{
glyphname = equal;
lastChange = "2018-03-15 02:24:29 +0000";
layers = (
{
layerId = "B5009CFD-227C-4A9D-A9B5-DAE3AEABB0A3";
paths = (
{
closed = 1;
nodes = (
"137 499 LINE SMOOTH",
"120 499 OFFCURVE",
"106 485 OFFCURVE",
"106 468 CURVE SMOOTH",
"106 391 LINE SMOOTH",
"106 374 OFFCURVE",
"120 360 OFFCURVE",
"137 360 CURVE SMOOTH",
"493 360 LINE SMOOTH",
"510 360 OFFCURVE",
"524 374 OFFCURVE",
"524 391 CURVE SMOOTH",
"524 468 LINE SMOOTH",
"524 485 OFFCURVE",
"510 499 OFFCURVE",
"493 499 CURVE SMOOTH"
);
},
{
closed = 1;
nodes = (
"137 220 LINE SMOOTH",
"120 220 OFFCURVE",
"106 206 OFFCURVE",
"106 189 CURVE SMOOTH",
"106 112 LINE SMOOTH",
"106 95 OFFCURVE",
"120 81 OFFCURVE",
"137 81 CURVE SMOOTH",
"493 81 LINE SMOOTH",
"510 81 OFFCURVE",
"524 95 OFFCURVE",
"524 112 CURVE SMOOTH",
"524 189 LINE SMOOTH",
"524 206 OFFCURVE",
"510 220 OFFCURVE",
"493 220 CURVE SMOOTH"
);
}
);
width = 600;
}
);
unicode = 003D;
},
{
glyphname = less;
lastChange = "2018-03-15 02:25:06 +0000";
layers = (
{
layerId = "B5009CFD-227C-4A9D-A9B5-DAE3AEABB0A3";
paths = (
{
closed = 1;
nodes = (
"209 361 LINE SMOOTH",
"197 373 OFFCURVE",
"197 393 OFFCURVE",
"209 405 CURVE SMOOTH",
"308 502 LINE SMOOTH",
"313 507 OFFCURVE",
"315 513 OFFCURVE",
"315 519 CURVE SMOOTH",
"315 584 LINE SMOOTH",
"315 614 OFFCURVE",
"271 615 OFFCURVE",
"241 586 CURVE SMOOTH",
"59 405 LINE SMOOTH",
"47 393 OFFCURVE",
"47 373 OFFCURVE",
"59 361 CURVE SMOOTH",
"241 179 LINE SMOOTH",
"271 149 OFFCURVE",
"315 167 OFFCURVE",
"315 209 CURVE SMOOTH",
"315 244 LINE SMOOTH",
"315 250 OFFCURVE",
"312 256 OFFCURVE",
"308 261 CURVE SMOOTH"
);
}
);
width = 365;
}
);
unicode = 003C;
},
{
glyphname = percent;
lastChange = "2018-03-15 02:24:42 +0000";
layers = (
{
layerId = "B5009CFD-227C-4A9D-A9B5-DAE3AEABB0A3";
paths = (
{
closed = 1;
nodes = (
"371 0 LINE SMOOTH",
"388 0 OFFCURVE",
"402 14 OFFCURVE",
"402 31 CURVE SMOOTH",
"402 667 LINE SMOOTH",
"402 684 OFFCURVE",
"388 698 OFFCURVE",
"371 698 CURVE SMOOTH",
"294 698 LINE SMOOTH",
"277 698 OFFCURVE",
"263 684 OFFCURVE",
"263 667 CURVE SMOOTH",
"263 31 LINE SMOOTH",
"263 14 OFFCURVE",
"277 0 OFFCURVE",
"294 0 CURVE SMOOTH"
);
},
{
closed = 1;
nodes = (
"81 559 LINE SMOOTH",
"64 559 OFFCURVE",
"50 545 OFFCURVE",
"50 528 CURVE SMOOTH",
"50 451 LINE SMOOTH",
"50 434 OFFCURVE",
"64 420 OFFCURVE",
"81 420 CURVE SMOOTH",
"159 420 LINE SMOOTH",
"176 420 OFFCURVE",
"190 434 OFFCURVE",
"190 451 CURVE SMOOTH",
"190 528 LINE SMOOTH",
"190 545 OFFCURVE",
"176 559 OFFCURVE",
"159 559 CURVE SMOOTH"
);
},
{
closed = 1;
nodes = (
"503 278 LINE SMOOTH",
"486 278 OFFCURVE",
"472 264 OFFCURVE",
"472 247 CURVE SMOOTH",
"472 170 LINE SMOOTH",
"472 153 OFFCURVE",
"486 139 OFFCURVE",
"503 139 CURVE SMOOTH",
"581 139 LINE SMOOTH",
"598 139 OFFCURVE",
"612 153 OFFCURVE",
"612 170 CURVE SMOOTH",
"612 247 LINE SMOOTH",
"612 264 OFFCURVE",
"598 278 OFFCURVE",
"581 278 CURVE SMOOTH"
);
}
);
width = 662;
}
);
unicode = 0025;
},
{
glyphname = bar;
lastChange = "2018-03-15 02:24:48 +0000";
layers = (
{
layerId = "B5009CFD-227C-4A9D-A9B5-DAE3AEABB0A3";
paths = (
{
closed = 1;
nodes = (
"158 0 LINE SMOOTH",
"175 0 OFFCURVE",
"189 14 OFFCURVE",
"189 31 CURVE SMOOTH",
"189 669 LINE SMOOTH",
"189 686 OFFCURVE",
"175 700 OFFCURVE",
"158 700 CURVE SMOOTH",
"81 700 LINE SMOOTH",
"64 700 OFFCURVE",
"50 686 OFFCURVE",
"50 669 CURVE SMOOTH",
"50 31 LINE SMOOTH",
"50 14 OFFCURVE",
"64 0 OFFCURVE",
"81 0 CURVE SMOOTH"
);
}
);
width = 239;
}
);
unicode = 007C;
},
{
glyphname = asciicircum;
lastChange = "2018-03-15 02:24:58 +0000";
layers = (
{
layerId = "B5009CFD-227C-4A9D-A9B5-DAE3AEABB0A3";
paths = (
{
closed = 1;
nodes = (
"286 501 LINE SMOOTH",
"328 501 OFFCURVE",
"345 544 OFFCURVE",
"316 574 CURVE SMOOTH",
"213 679 LINE SMOOTH",
"201 691 OFFCURVE",
"181 691 OFFCURVE",
"169 679 CURVE SMOOTH",
"65 575 LINE SMOOTH",
"35 545 OFFCURVE",
"53 501 OFFCURVE",
"95 501 CURVE SMOOTH",
"131 501 LINE SMOOTH",
"137 501 OFFCURVE",
"143 503 OFFCURVE",
"148 508 CURVE SMOOTH",
"169 529 LINE SMOOTH",
"181 541 OFFCURVE",
"201 541 OFFCURVE",
"213 529 CURVE SMOOTH",
"233 509 LINE SMOOTH",
"238 504 OFFCURVE",
"244 501 OFFCURVE",
"251 501 CURVE SMOOTH"
);
}
